999
dxfrw 0.6.3
  0
SECTION
  2
HEADER
  9
$ACADVER
  1
AC1021
  9
$DWGCODEPAGE
  3
ANSI_1252
  9
$INSBASE
 10
0
 20
0
 30
0
  9
$EXTMIN
 10
88.06445250814136
 20
29.83348613689086
 30
0
  9
$EXTMAX
 10
190.1665138631091
 20
126.6669760000305
 30
0
  9
$LIMMIN
 10
0
 20
0
  9
$LIMMAX
 10
420
 20
297
  9
$ORTHOMODE
 70
    0
  9
$REGENMODE
 70
    1
  9
$FILLMODE
 70
    1
  9
$QTEXTMODE
 70
    0
  9
$MIRRTEXT
 70
    0
  9
$LTSCALE
 40
1
  9
$ATTMODE
 70
    0
  9
$TEXTSIZE
 40
2.5
  9
$TRACEWID
 40
15.68
  9
$TEXTSTYLE
  7
STANDARD
  9
$CLAYER
  8
Dimensions
  9
$CELTYPE
  6
BYLAYER
  9
$CECOLOR
 62
  256
  9
$CELTSCALE
 40
1
  9
$DISPSILH
 70
    0
  9
$DIMSCALE
 40
1
  9
$DIMASZ
 40
1
  9
$DIMEXO
 40
0.025
  9
$DIMDLI
 40
3.75
  9
$DIMRND
 40
0
  9
$DIMDLE
 40
0
  9
$DIMEXE
 40
0.05
  9
$DIMTP
 40
0
  9
$DIMTM
 40
0
  9
$DIMTXT
 40
1
  9
$DIMCEN
 40
2.5
  9
$DIMTSZ
 40
0
  9
$DIMTOL
 70
    0
  9
$DIMLIM
 70
    0
  9
$DIMTIH
 70
    0
  9
$DIMTOH
 70
    0
  9
$DIMSE1
 70
    0
  9
$DIMSE2
 70
    0
  9
$DIMTAD
 70
    1
  9
$DIMZIN
 70
    8
  9
$DIMBLK
  1

  9
$DIMASO
 70
    1
  9
$DIMSHO
 70
    1
  9
$DIMPOST
  1

  9
$DIMAPOST
  1

  9
$DIMALT
 70
    0
  9
$DIMALTD
 70
    3
  9
$DIMALTF
 40
0.03937
  9
$DIMLFAC
 40
1
  9
$DIMTOFL
 70
    1
  9
$DIMTVP
 40
0
  9
$DIMTIX
 70
    0
  9
$DIMSOXD
 70
    0
  9
$DIMSAH
 70
    0
  9
$DIMBLK1
  1

  9
$DIMBLK2
  1

  9
$DIMSTYLE
  2
STANDARD
  9
$DIMCLRD
 70
    0
  9
$DIMCLRE
 70
    0
  9
$DIMCLRT
 70
    0
  9
$DIMTFAC
 40
1
  9
$DIMGAP
 40
0.1
  9
$DIMJUST
 70
    0
  9
$DIMSD1
 70
    0
  9
$DIMSD2
 70
    0
  9
$DIMTOLJ
 70
    0
  9
$DIMTZIN
 70
    8
  9
$DIMALTZ
 70
    0
  9
$DIMALTTZ
 70
    0
  9
$DIMUPT
 70
    0
  9
$DIMDEC
 70
    2
  9
$DIMTDEC
 70
    2
  9
$DIMALTU
 70
    2
  9
$DIMALTTD
 70
    3
  9
$DIMTXSTY
  7
standard
  9
$DIMAUNIT
 70
    0
  9
$DIMADEC
 70
    2
  9
$DIMALTRND
 40
0
  9
$DIMAZIN
 70
    0
  9
$DIMDSEP
 70
    0
  9
$DIMATFIT
 70
    3
  9
$DIMFRAC
 70
    0
  9
$DIMLDRBLK
  1
STANDARD
  9
$DIMLUNIT
 70
    2
  9
$DIMLWD
 70
   -2
  9
$DIMLWE
 70
   -2
  9
$DIMTMOVE
 70
    0
  9
$DIMFXL
 40
0.04
  9
$DIMFXLON
 70
    0
  9
$DIMJOGANG
 40
0.7854
  9
$DIMTFILL
 70
    0
  9
$DIMTFILLCLR
 70
    0
  9
$DIMARCSYM
 70
    0
  9
$DIMLTYPE
  6

  9
$DIMLTEX1
  6

  9
$DIMLTEX2
  6

  9
$LUNITS
 70
    2
  9
$LUPREC
 70
    4
  9
$SKETCHINC
 40
1
  9
$FILLETRAD
 40
0
  9
$AUNITS
 70
    0
  9
$AUPREC
 70
    2
  9
$MENU
  1
.
  9
$ELEVATION
 40
0
  9
$PELEVATION
 40
0
  9
$THICKNESS
 40
0
  9
$LIMCHECK
 70
    0
  9
$CHAMFERA
 40
0
  9
$CHAMFERB
 40
0
  9
$CHAMFERC
 40
0
  9
$CHAMFERD
 40
0
  9
$SKPOLY
 70
    0
  9
$USRTIMER
 70
    1
  9
$ANGBASE
 50
0
  9
$ANGDIR
 70
    0
  9
$PDMODE
 70
   34
  9
$PDSIZE
 40
0
  9
$PLINEWID
 40
0
  9
$SPLFRAME
 70
    0
  9
$SPLINETYPE
 70
    2
  9
$SPLINESEGS
 70
    8
  9
$HANDSEED
  5
20000
  9
$SURFTAB1
 70
    6
  9
$SURFTAB2
 70
    6
  9
$SURFTYPE
 70
    6
  9
$SURFU
 70
    6
  9
$SURFV
 70
    6
  9
$UCSBASE
  2

  9
$UCSNAME
  2

  9
$UCSORG
 10
0
 20
0
 30
0
  9
$UCSXDIR
 10
1
 20
0
 30
0
  9
$UCSYDIR
 10
0
 20
1
 30
0
  9
$UCSORTHOREF
  2

  9
$UCSORTHOVIEW
 70
    0
  9
$UCSORGTOP
 10
0
 20
0
 30
0
  9
$UCSORGBOTTOM
 10
0
 20
0
 30
0
  9
$UCSORGLEFT
 10
0
 20
0
 30
0
  9
$UCSORGRIGHT
 10
0
 20
0
 30
0
  9
$UCSORGFRONT
 10
0
 20
0
 30
0
  9
$UCSORGBACK
 10
0
 20
0
 30
0
  9
$PUCSBASE
  2

  9
$PUCSNAME
  2

  9
$PUCSORG
 10
0
 20
0
 30
0
  9
$PUCSXDIR
 10
1
 20
0
 30
0
  9
$PUCSYDIR
 10
0
 20
1
 30
0
  9
$PUCSORTHOREF
  2

  9
$PUCSORTHOVIEW
 70
    0
  9
$PUCSORGTOP
 10
0
 20
0
 30
0
  9
$PUCSORGBOTTOM
 10
0
 20
0
 30
0
  9
$PUCSORGLEFT
 10
0
 20
0
 30
0
  9
$PUCSORGRIGHT
 10
0
 20
0
 30
0
  9
$PUCSORGFRONT
 10
0
 20
0
 30
0
  9
$PUCSORGBACK
 10
0
 20
0
 30
0
  9
$USERI1
 70
    0
  9
$USERI2
 70
    0
  9
$USERI3
 70
    0
  9
$USERI4
 70
    0
  9
$USERI5
 70
    0
  9
$USERR1
 40
0
  9
$USERR2
 40
0
  9
$USERR3
 40
0
  9
$USERR4
 40
0
  9
$USERR5
 40
0
  9
$WORLDVIEW
 70
    1
  9
$SHADEDGE
 70
    3
  9
$SHADEDIF
 70
   70
  9
$TILEMODE
 70
    1
  9
$MAXACTVP
 70
   64
  9
$PINSBASE
 10
-5.297472242100669
 20
-1.823405192233636
 30
0
  9
$PLIMCHECK
 70
    0
  9
$PEXTMIN
 10
0
 20
0
 30
0
  9
$PEXTMAX
 10
0
 20
0
 30
0
  9
$GRIDMODE
 70
    0
  9
$SNAPSTYLE
 70
    0
  9
$GRIDUNIT
 10
0
 20
0
  9
$PLIMMIN
 10
0
 20
0
  9
$PLIMMAX
 10
11
 20
8.5
  9
$UNITMODE
 70
    0
  9
$VISRETAIN
 70
    1
  9
$PLINEGEN
 70
    0
  9
$PSLTSCALE
 70
    1
  9
$TREEDEPTH
 70
 3020
  9
$CMLSTYLE
  2
Standard
  9
$CMLJUST
 70
    0
  9
$CMLSCALE
 40
20
  9
$PROXYGRAPHICS
 70
    1
  9
$MEASUREMENT
 70
    1
  9
$CELWEIGHT
370
   -1
  9
$ENDCAPS
280
    0
  9
$JOINSTYLE
280
    0
  9
$LWDISPLAY
290
    0
  9
$INSUNITS
 70
    1
  9
$HYPERLINKBASE
  1

  9
$STYLESHEET
  1

  9
$XEDIT
290
    1
  9
$CEPSNTYPE
380
    0
  9
$PSTYLEMODE
290
    1
  9
$EXTNAMES
290
    1
  9
$PSVPSCALE
 40
0.07761504490030348
  9
$OLESTARTUP
290
    0
  9
$SORTENTS
280
  127
  9
$INDEXCTL
280
    0
  9
$HIDETEXT
280
    1
  9
$XCLIPFRAME
290
    0
  9
$HALOGAP
280
    0
  9
$OBSCOLOR
 70
  257
  9
$OBSLTYPE
280
    0
  9
$INTERSECTIONDISPLAY
280
    0
  9
$INTERSECTIONCOLOR
 70
  257
  9
$DIMASSOC
280
    1
  9
$PROJECTNAME
  1

  9
$CAMERADISPLAY
290
    0
  9
$LENSLENGTH
 40
50
  9
$CAMERAHEIGHT
 40
0
  9
$STEPSPERSEC
 40
2
  9
$STEPSIZE
 40
50
  9
$3DDWFPREC
 40
2
  9
$PSOLWIDTH
 40
5
  9
$PSOLHEIGHT
 40
80
  9
$LOFTANG1
 40
1.570796326794897
  9
$LOFTANG2
 40
1.570796326794897
  9
$LOFTMAG1
 40
0
  9
$LOFTMAG2
 40
0
  9
$LOFTPARAM
 70
    7
  9
$LOFTNORMALS
280
    1
  9
$LATITUDE
 40
1
  9
$LONGITUDE
 40
1
  9
$NORTHDIRECTION
 40
0
  9
$TIMEZONE
 70
-8000
  9
$LIGHTGLYPHDISPLAY
280
    1
  9
$TILEMODELIGHTSYNCH
280
    1
  9
$SOLIDHIST
280
    1
  9
$SHOWHIST
280
    1
  9
$DWFFRAME
280
    2
  9
$DGNFRAME
280
    0
  9
$REALWORLDSCALE
290
    1
  9
$INTERFERECOLOR
 62
    1
  9
$CSHADOW
280
    0
  9
$SHADOWPLANELOCATION
 40
0
  0
ENDSEC
  0
SECTION
  2
CLASSES
  0
ENDSEC
  0
SECTION
  2
TABLES
  0
TABLE
  2
VPORT
  5
8
330
0
100
AcDbSymbolTable
 70
    1
  0
VPORT
  5
31
330
2
100
AcDbSymbolTableRecord
100
AcDbViewportTableRecord
  2
*ACTIVE
 70
    0
 10
0
 20
0
 11
1
 21
1
 12
122.240000000037
 22
70.56000000002136
 13
0
 23
0
 14
10
 24
10
 15
10
 25
10
 16
0
 26
0
 36
1
 17
0
 27
0
 37
0
 40
125.600000000038
 41
1.680254777070064
 42
50
 43
0
 44
0
 50
0
 51
0
 71
    0
 72
  100
 73
    1
 74
    3
 75
    0
 76
    0
 77
    0
 78
    0
281
    0
 65
    1
110
0
120
0
130
0
111
1
121
0
131
0
112
0
122
1
132
0
 79
    0
146
0
348
10020
 60
    7
 61
    5
292
1
282
    1
141
0
142
0
 63
  250
421
3358443
  0
ENDTAB
  0
TABLE
  2
LTYPE
  5
5
330
0
100
AcDbSymbolTable
 70
    4
  0
LTYPE
  5
14
330
5
100
AcDbSymbolTableRecord
100
AcDbLinetypeTableRecord
  2
ByBlock
 70
    0
  3

 72
   65
 73
    0
 40
0
  0
LTYPE
  5
15
330
5
100
AcDbSymbolTableRecord
100
AcDbLinetypeTableRecord
  2
ByLayer
 70
    0
  3

 72
   65
 73
    0
 40
0
  0
LTYPE
  5
16
330
5
100
AcDbSymbolTableRecord
100
AcDbLinetypeTableRecord
  2
Continuous
 70
    0
  3
Solid line
 72
   65
 73
    0
 40
0
  0
LTYPE
  5
32
330
5
100
AcDbSymbolTableRecord
100
AcDbLinetypeTableRecord
  2
DOT
 70
    0
  3
Dot . . . . . . . . . . . . . . . . . . . . . .
 72
   65
 73
    2
 40
6.35
 49
0
 74
    0
 49
-6.35
 74
    0
  0
LTYPE
  5
33
330
5
100
AcDbSymbolTableRecord
100
AcDbLinetypeTableRecord
  2
DOTTINY
 70
    0
  3
Dot (.15x) .....................................
 72
   65
 73
    2
 40
0.9525
 49
0
 74
    0
 49
-0.9525
 74
    0
  0
LTYPE
  5
34
330
5
100
AcDbSymbolTableRecord
100
AcDbLinetypeTableRecord
  2
DOT2
 70
    0
  3
Dot (.5x) .....................................
 72
   65
 73
    2
 40
3.175
 49
0
 74
    0
 49
-3.175
 74
    0
  0
LTYPE
  5
35
330
5
100
AcDbSymbolTableRecord
100
AcDbLinetypeTableRecord
  2
DOTX2
 70
    0
  3
Dot (2x) .  .  .  .  .  .  .  .  .  .  .  .  .
 72
   65
 73
    2
 40
12.7
 49
0
 74
    0
 49
-12.7
 74
    0
  0
LTYPE
  5
36
330
5
100
AcDbSymbolTableRecord
100
AcDbLinetypeTableRecord
  2
DASHED
 70
    0
  3
Dashed _ _ _ _ _ _ _ _ _ _ _ _ _ _ _ _ _
 72
   65
 73
    2
 40
19.05
 49
12.7
 74
    0
 49
-6.35
 74
    0
  0
LTYPE
  5
37
330
5
100
AcDbSymbolTableRecord
100
AcDbLinetypeTableRecord
  2
DASHEDTINY
 70
    0
  3
Dashed (.15x) _ _ _ _ _ _ _ _ _ _ _ _ _ _ _ _ _
 72
   65
 73
    2
 40
2.8575
 49
1.905
 74
    0
 49
-0.9525
 74
    0
  0
LTYPE
  5
38
330
5
100
AcDbSymbolTableRecord
100
AcDbLinetypeTableRecord
  2
DASHED2
 70
    0
  3
Dashed (.5x) _ _ _ _ _ _ _ _ _ _ _ _ _ _ _ _ _
 72
   65
 73
    2
 40
9.524999999999999
 49
6.35
 74
    0
 49
-3.175
 74
    0
  0
LTYPE
  5
39
330
5
100
AcDbSymbolTableRecord
100
AcDbLinetypeTableRecord
  2
DASHEDX2
 70
    0
  3
Dashed (2x) ____  ____  ____  ____  ____  ___
 72
   65
 73
    2
 40
38.09999999999999
 49
25.4
 74
    0
 49
-12.7
 74
    0
  0
LTYPE
  5
3A
330
5
100
AcDbSymbolTableRecord
100
AcDbLinetypeTableRecord
  2
DASHDOT
 70
    0
  3
Dash dot __ . __ . __ . __ . __ . __ . __ . __
 72
   65
 73
    4
 40
25.4
 49
12.7
 74
    0
 49
-6.35
 74
    0
 49
0
 74
    0
 49
-6.35
 74
    0
  0
LTYPE
  5
3B
330
5
100
AcDbSymbolTableRecord
100
AcDbLinetypeTableRecord
  2
DASHDOTTINY
 70
    0
  3
Dash dot (.15x) _._._._._._._._._._._._._._._.
 72
   65
 73
    4
 40
3.81
 49
1.905
 74
    0
 49
-0.9525
 74
    0
 49
0
 74
    0
 49
-0.9525
 74
    0
  0
LTYPE
  5
3C
330
5
100
AcDbSymbolTableRecord
100
AcDbLinetypeTableRecord
  2
DASHDOT2
 70
    0
  3
Dash dot (.5x) _._._._._._._._._._._._._._._.
 72
   65
 73
    4
 40
12.7
 49
6.35
 74
    0
 49
-3.175
 74
    0
 49
0
 74
    0
 49
-3.175
 74
    0
  0
LTYPE
  5
3D
330
5
100
AcDbSymbolTableRecord
100
AcDbLinetypeTableRecord
  2
DASHDOTX2
 70
    0
  3
Dash dot (2x) ____  .  ____  .  ____  .  ___
 72
   65
 73
    4
 40
50.8
 49
25.4
 74
    0
 49
-12.7
 74
    0
 49
0
 74
    0
 49
-12.7
 74
    0
  0
LTYPE
  5
3E
330
5
100
AcDbSymbolTableRecord
100
AcDbLinetypeTableRecord
  2
DIVIDE
 70
    0
  3
Divide ____ . . ____ . . ____ . . ____ . . ____
 72
   65
 73
    6
 40
31.75
 49
12.7
 74
    0
 49
-6.35
 74
    0
 49
0
 74
    0
 49
-6.35
 74
    0
 49
0
 74
    0
 49
-6.35
 74
    0
  0
LTYPE
  5
3F
330
5
100
AcDbSymbolTableRecord
100
AcDbLinetypeTableRecord
  2
DIVIDETINY
 70
    0
  3
Divide (.15x) __..__..__..__..__..__..__..__.._
 72
   65
 73
    6
 40
4.7625
 49
1.905
 74
    0
 49
-0.9525
 74
    0
 49
0
 74
    0
 49
-0.9525
 74
    0
 49
0
 74
    0
 49
-0.9525
 74
    0
  0
LTYPE
  5
40
330
5
100
AcDbSymbolTableRecord
100
AcDbLinetypeTableRecord
  2
DIVIDE2
 70
    0
  3
Divide (.5x) __..__..__..__..__..__..__..__.._
 72
   65
 73
    6
 40
15.875
 49
6.35
 74
    0
 49
-3.175
 74
    0
 49
0
 74
    0
 49
-3.175
 74
    0
 49
0
 74
    0
 49
-3.175
 74
    0
  0
LTYPE
  5
41
330
5
100
AcDbSymbolTableRecord
100
AcDbLinetypeTableRecord
  2
DIVIDEX2
 70
    0
  3
Divide (2x) ________  .  .  ________  .  .  _
 72
   65
 73
    6
 40
63.5
 49
25.4
 74
    0
 49
-12.7
 74
    0
 49
0
 74
    0
 49
-12.7
 74
    0
 49
0
 74
    0
 49
-12.7
 74
    0
  0
LTYPE
  5
42
330
5
100
AcDbSymbolTableRecord
100
AcDbLinetypeTableRecord
  2
BORDER
 70
    0
  3
Border __ __ . __ __ . __ __ . __ __ . __ __ .
 72
   65
 73
    6
 40
44.45
 49
12.7
 74
    0
 49
-6.35
 74
    0
 49
12.7
 74
    0
 49
-6.35
 74
    0
 49
0
 74
    0
 49
-6.35
 74
    0
  0
LTYPE
  5
43
330
5
100
AcDbSymbolTableRecord
100
AcDbLinetypeTableRecord
  2
BORDERTINY
 70
    0
  3
Border (.15x) __.__.__.__.__.__.__.__.__.__.__.
 72
   65
 73
    6
 40
6.6675
 49
1.905
 74
    0
 49
-0.9525
 74
    0
 49
1.905
 74
    0
 49
-0.9525
 74
    0
 49
0
 74
    0
 49
-0.9525
 74
    0
  0
LTYPE
  5
44
330
5
100
AcDbSymbolTableRecord
100
AcDbLinetypeTableRecord
  2
BORDER2
 70
    0
  3
Border (.5x) __.__.__.__.__.__.__.__.__.__.__.
 72
   65
 73
    6
 40
22.225
 49
6.35
 74
    0
 49
-3.175
 74
    0
 49
6.35
 74
    0
 49
-3.175
 74
    0
 49
0
 74
    0
 49
-3.175
 74
    0
  0
LTYPE
  5
45
330
5
100
AcDbSymbolTableRecord
100
AcDbLinetypeTableRecord
  2
BORDERX2
 70
    0
  3
Border (2x) ____  ____  .  ____  ____  .  ___
 72
   65
 73
    6
 40
88.89999999999999
 49
25.4
 74
    0
 49
-12.7
 74
    0
 49
25.4
 74
    0
 49
-12.7
 74
    0
 49
0
 74
    0
 49
-12.7
 74
    0
  0
LTYPE
  5
46
330
5
100
AcDbSymbolTableRecord
100
AcDbLinetypeTableRecord
  2
CENTER
 70
    0
  3
Center ____ _ ____ _ ____ _ ____ _ ____ _ ____
 72
   65
 73
    4
 40
50.8
 49
31.75
 74
    0
 49
-6.35
 74
    0
 49
6.35
 74
    0
 49
-6.35
 74
    0
  0
LTYPE
  5
47
330
5
100
AcDbSymbolTableRecord
100
AcDbLinetypeTableRecord
  2
CENTERTINY
 70
    0
  3
Center (.15x) ___ _ ___ _ ___ _ ___ _ ___ _ ___
 72
   65
 73
    4
 40
7.619999999999999
 49
4.7625
 74
    0
 49
-0.9525
 74
    0
 49
0.9525
 74
    0
 49
-0.9525
 74
    0
  0
LTYPE
  5
48
330
5
100
AcDbSymbolTableRecord
100
AcDbLinetypeTableRecord
  2
CENTER2
 70
    0
  3
Center (.5x) ___ _ ___ _ ___ _ ___ _ ___ _ ___
 72
   65
 73
    4
 40
28.575
 49
19.05
 74
    0
 49
-3.175
 74
    0
 49
3.175
 74
    0
 49
-3.175
 74
    0
  0
LTYPE
  5
49
330
5
100
AcDbSymbolTableRecord
100
AcDbLinetypeTableRecord
  2
CENTERX2
 70
    0
  3
Center (2x) ________  __  ________  __  _____
 72
   65
 73
    4
 40
101.6
 49
63.5
 74
    0
 49
-12.7
 74
    0
 49
12.7
 74
    0
 49
-12.7
 74
    0
  0
ENDTAB
  0
TABLE
  2
LAYER
  5
2
330
0
100
AcDbSymbolTable
 70
    1
  0
LAYER
  5
10
330
2
100
AcDbSymbolTableRecord
100
AcDbLayerTableRecord
  2
0
 70
    0
 62
    7
  6
CONTINUOUS
370
    0
390
F
  0
LAYER
  5
4A
330
2
100
AcDbSymbolTableRecord
100
AcDbLayerTableRecord
  2
Dimensions
 70
    0
 62
    7
  6
DASHEDTINY
370
   13
390
F
  0
LAYER
  5
4B
330
2
100
AcDbSymbolTableRecord
100
AcDbLayerTableRecord
  2
Frame
 70
    0
 62
    7
  6
CONTINUOUS
370
   25
390
F
  0
LAYER
  5
4C
330
2
100
AcDbSymbolTableRecord
100
AcDbLayerTableRecord
  2
Frame (Hidden)
 70
    0
 62
    7
  6
DASHEDTINY
370
   25
390
F
  0
LAYER
  5
4D
330
2
100
AcDbSymbolTableRecord
100
AcDbLayerTableRecord
  2
Guides
 70
    1
 62
    8
  6
CONTINUOUS
290
0
370
    0
390
F
1001
LibreCad
1070
    1
  0
LAYER
  5
4E
330
2
100
AcDbSymbolTableRecord
100
AcDbLayerTableRecord
  2
Shell
 70
    0
 62
    7
  6
CONTINUOUS
370
   25
390
F
  0
ENDTAB
  0
TABLE
  2
STYLE
  5
3
330
0
100
AcDbSymbolTable
 70
    3
  0
STYLE
  5
4F
330
2
100
AcDbSymbolTableRecord
100
AcDbTextStyleTableRecord
  2
Standard
 70
    0
 40
0
 41
1
 50
0
 71
    0
 42
1
  3
txt
  4

  0
ENDTAB
  0
TABLE
  2
VIEW
  5
6
330
0
100
AcDbSymbolTable
 70
    0
  0
ENDTAB
  0
TABLE
  2
UCS
  5
7
330
0
100
AcDbSymbolTable
 70
    0
  0
ENDTAB
  0
TABLE
  2
APPID
  5
9
330
0
100
AcDbSymbolTable
 70
    1
  0
APPID
  5
12
330
9
100
AcDbSymbolTableRecord
100
AcDbRegAppTableRecord
  2
ACAD
 70
    0
  0
APPID
  5
50
330
9
100
AcDbSymbolTableRecord
100
AcDbRegAppTableRecord
  2
LibreCad
 70
    0
  0
ENDTAB
  0
TABLE
  2
DIMSTYLE
  5
A
330
0
100
AcDbSymbolTable
 70
    1
100
AcDbDimStyleTable
 71
    1
  0
DIMSTYLE
105
51
330
A
100
AcDbSymbolTableRecord
100
AcDbDimStyleTableRecord
  2
Standard
 70
    0
 40
1
 41
1
 42
0.025
 43
0.38
 44
0.05
 45
0
 46
0
 47
0
 48
0
 49
0.04
140
1
141
0.09
142
0
143
25.4
144
1
145
0
146
1
147
0.1
148
0
 71
    0
 72
    0
 73
    0
 74
    1
 75
    0
 76
    0
 77
    0
 78
    8
 79
    0
170
    0
171
    2
172
    0
173
    0
174
    0
175
    0
176
    0
177
    0
178
    0
179
    2
271
    2
272
    4
273
    2
274
    2
275
    0
276
    0
277
    2
278
    0
279
    0
280
    0
281
    0
282
    0
283
    1
284
    0
285
    0
286
    0
288
    0
289
    3
340
standard
341

371
   -2
372
   -2
  0
ENDTAB
  0
TABLE
  2
BLOCK_RECORD
  5
1
330
0
100
AcDbSymbolTable
 70
    2
  0
BLOCK_RECORD
  5
1F
330
1
100
AcDbSymbolTableRecord
100
AcDbBlockTableRecord
  2
*Model_Space
 70
    0
280
    1
281
    0
  0
BLOCK_RECORD
  5
1E
330
1
100
AcDbSymbolTableRecord
100
AcDbBlockTableRecord
  2
*Paper_Space
 70
    0
280
    1
281
    0
  0
BLOCK_RECORD
  5
52
330
1
100
AcDbSymbolTableRecord
100
AcDbBlockTableRecord
  2
*D20
 70
    0
280
    1
281
    0
  0
BLOCK_RECORD
  5
55
330
1
100
AcDbSymbolTableRecord
100
AcDbBlockTableRecord
  2
*D21
 70
    0
280
    1
281
    0
  0
BLOCK_RECORD
  5
58
330
1
100
AcDbSymbolTableRecord
100
AcDbBlockTableRecord
  2
*D11
 70
    0
280
    1
281
    0
  0
BLOCK_RECORD
  5
5B
330
1
100
AcDbSymbolTableRecord
100
AcDbBlockTableRecord
  2
*D19
 70
    0
280
    1
281
    0
  0
BLOCK_RECORD
  5
5E
330
1
100
AcDbSymbolTableRecord
100
AcDbBlockTableRecord
  2
*D12
 70
    0
280
    1
281
    0
  0
BLOCK_RECORD
  5
61
330
1
100
AcDbSymbolTableRecord
100
AcDbBlockTableRecord
  2
*D7
 70
    0
280
    1
281
    0
  0
BLOCK_RECORD
  5
64
330
1
100
AcDbSymbolTableRecord
100
AcDbBlockTableRecord
  2
*D8
 70
    0
280
    1
281
    0
  0
BLOCK_RECORD
  5
67
330
1
100
AcDbSymbolTableRecord
100
AcDbBlockTableRecord
  2
*D5
 70
    0
280
    1
281
    0
  0
BLOCK_RECORD
  5
6A
330
1
100
AcDbSymbolTableRecord
100
AcDbBlockTableRecord
  2
*D23
 70
    0
280
    1
281
    0
  0
BLOCK_RECORD
  5
6D
330
1
100
AcDbSymbolTableRecord
100
AcDbBlockTableRecord
  2
*D14
 70
    0
280
    1
281
    0
  0
BLOCK_RECORD
  5
70
330
1
100
AcDbSymbolTableRecord
100
AcDbBlockTableRecord
  2
*D6
 70
    0
280
    1
281
    0
  0
BLOCK_RECORD
  5
73
330
1
100
AcDbSymbolTableRecord
100
AcDbBlockTableRecord
  2
*D13
 70
    0
280
    1
281
    0
  0
BLOCK_RECORD
  5
76
330
1
100
AcDbSymbolTableRecord
100
AcDbBlockTableRecord
  2
*D16
 70
    0
280
    1
281
    0
  0
BLOCK_RECORD
  5
79
330
1
100
AcDbSymbolTableRecord
100
AcDbBlockTableRecord
  2
*D15
 70
    0
280
    1
281
    0
  0
BLOCK_RECORD
  5
7C
330
1
100
AcDbSymbolTableRecord
100
AcDbBlockTableRecord
  2
*D1
 70
    0
280
    1
281
    0
  0
BLOCK_RECORD
  5
7F
330
1
100
AcDbSymbolTableRecord
100
AcDbBlockTableRecord
  2
*D3
 70
    0
280
    1
281
    0
  0
BLOCK_RECORD
  5
82
330
1
100
AcDbSymbolTableRecord
100
AcDbBlockTableRecord
  2
*D17
 70
    0
280
    1
281
    0
  0
BLOCK_RECORD
  5
85
330
1
100
AcDbSymbolTableRecord
100
AcDbBlockTableRecord
  2
*D18
 70
    0
280
    1
281
    0
  0
BLOCK_RECORD
  5
88
330
1
100
AcDbSymbolTableRecord
100
AcDbBlockTableRecord
  2
*D2
 70
    0
280
    1
281
    0
  0
BLOCK_RECORD
  5
8B
330
1
100
AcDbSymbolTableRecord
100
AcDbBlockTableRecord
  2
*D22
 70
    0
280
    1
281
    0
  0
BLOCK_RECORD
  5
8E
330
1
100
AcDbSymbolTableRecord
100
AcDbBlockTableRecord
  2
*D4
 70
    0
280
    1
281
    0
  0
BLOCK_RECORD
  5
91
330
1
100
AcDbSymbolTableRecord
100
AcDbBlockTableRecord
  2
*D9
 70
    0
280
    1
281
    0
  0
BLOCK_RECORD
  5
94
330
1
100
AcDbSymbolTableRecord
100
AcDbBlockTableRecord
  2
*D10
 70
    0
280
    1
281
    0
  0
BLOCK_RECORD
  5
97
330
1
100
AcDbSymbolTableRecord
100
AcDbBlockTableRecord
  2
*D24
 70
    0
280
    1
281
    0
  0
ENDTAB
  0
ENDSEC
  0
SECTION
  2
BLOCKS
  0
BLOCK
  5
20
330
1F
100
AcDbEntity
  8
0
100
AcDbBlockBegin
  2
*Model_Space
 70
    0
 10
0
 20
0
 30
0
  3
*Model_Space
  1

  0
ENDBLK
  5
21
330
1F
100
AcDbEntity
  8
0
100
AcDbBlockEnd
  0
BLOCK
  5
1C
330
1B
100
AcDbEntity
  8
0
100
AcDbBlockBegin
  2
*Paper_Space
 70
    0
 10
0
 20
0
 30
0
  3
*Paper_Space
  1

  0
ENDBLK
  5
1D
330
1F
100
AcDbEntity
  8
0
100
AcDbBlockEnd
  0
BLOCK
  5
53
330
52
100
AcDbEntity
  8
0
100
AcDbBlockBegin
  2
*D20
 70
    1
 10
0
 20
0
  3
*D20
  1

  0
LINE
  5
9A
100
AcDbEntity
  8
Dimensions
  6
ByBlock
 62
    0
370
   -2
100
AcDbLine
 10
154.2140400000055
 20
108.5584000000047
 11
144.9484000000423
 21
108.5584000000047
  0
LINE
  5
9B
100
AcDbEntity
  8
Dimensions
  6
ByBlock
 62
    0
370
   -2
100
AcDbLine
 10
154.2140400000055
 20
105.0584000000047
 11
144.9484000000423
 21
105.0584000000047
  0
LINE
  5
9C
100
AcDbEntity
  8
Dimensions
  6
ByBlock
 62
    0
370
   -2
100
AcDbLine
 10
144.9984000000424
 20
108.5584000000047
 11
144.9984000000424
 21
105.0584000000047
  0
SOLID
  5
9D
100
AcDbEntity
  8
Dimensions
  6
ByBlock
 62
    0
370
   -2
100
AcDbTrace
 10
144.9984000000424
 20
108.5584000000047
 30
0
 11
145.1649138631515
 21
107.5584000000047
 31
0
 12
144.8318861369332
 22
107.5584000000047
 32
0
 13
144.8318861369332
 23
107.5584000000047
 33
0
  0
SOLID
  5
9E
100
AcDbEntity
  8
Dimensions
  6
ByBlock
 62
    0
370
   -2
100
AcDbTrace
 10
144.9984000000424
 20
105.0584000000047
 30
0
 11
144.8318861369332
 21
106.0584000000047
 31
0
 12
145.1649138631515
 22
106.0584000000047
 32
0
 13
145.1649138631515
 23
106.0584000000047
 33
0
  0
MTEXT
  5
9F
100
AcDbEntity
  8
Dimensions
  6
CONTINUOUS
 62
    0
370
   -2
100
AcDbMText
 10
144.3984000000424
 20
106.8084000000047
 30
0
 40
1
 41
1.555555555555679
 71
    5
 72
    1
  1
3.5
  7
standard
210
0
220
0
230
1
 50
90
 73
    2
 44
1
  0
ENDBLK
  5
54
330
52
100
AcDbEntity
  8
0
100
AcDbBlockEnd
  0
BLOCK
  5
56
330
55
100
AcDbEntity
  8
0
100
AcDbBlockBegin
  2
*D21
 70
    1
 10
0
 20
0
  3
*D21
  1

  0
LINE
  5
A0
100
AcDbEntity
  8
Dimensions
  6
ByBlock
 62
    0
370
   -2
100
AcDbLine
 10
97.21404000000551
 20
83.55840000000474
 11
91.64797120002709
 21
83.55840000000474
  0
LINE
  5
A1
100
AcDbEntity
  8
Dimensions
  6
ByBlock
 62
    0
370
   -2
100
AcDbLine
 10
97.21404000000551
 20
82.05840000000474
 11
91.64797120002709
 21
82.05840000000474
  0
LINE
  5
A2
100
AcDbEntity
  8
Dimensions
  6
ByBlock
 62
    0
370
   -2
100
AcDbLine
 10
91.69797120002708
 20
85.55840000000474
 11
91.69797120002708
 21
80.05840000000474
  0
SOLID
  5
A3
100
AcDbEntity
  8
Dimensions
  6
ByBlock
 62
    0
370
   -2
100
AcDbTrace
 10
91.69797120002708
 20
83.55840000000474
 30
0
 11
91.53145733691795
 21
84.55840000000474
 31
0
 12
91.86448506313621
 22
84.55840000000474
 32
0
 13
91.86448506313621
 23
84.55840000000474
 33
0
  0
SOLID
  5
A4
100
AcDbEntity
  8
Dimensions
  6
ByBlock
 62
    0
370
   -2
100
AcDbTrace
 10
91.69797120002708
 20
82.05840000000474
 30
0
 11
91.86448506313621
 21
81.05840000000474
 31
0
 12
91.53145733691795
 22
81.05840000000474
 32
0
 13
91.53145733691795
 23
81.05840000000474
 33
0
  0
MTEXT
  5
A5
100
AcDbEntity
  8
Dimensions
  6
CONTINUOUS
 62
    0
370
   -2
100
AcDbMText
 10
91.09797120002709
 20
82.80840000000474
 30
0
 40
1
 41
1.333333333333395
 71
    5
 72
    1
  1
1.5
  7
standard
210
0
220
0
230
1
 50
90
 73
    2
 44
1
  0
ENDBLK
  5
57
330
55
100
AcDbEntity
  8
0
100
AcDbBlockEnd
  0
BLOCK
  5
59
330
58
100
AcDbEntity
  8
0
100
AcDbBlockBegin
  2
*D11
 70
    1
 10
0
 20
0
  3
*D11
  1

  0
LINE
  5
A6
100
AcDbEntity
  8
Dimensions
  6
ByBlock
 62
    0
370
   -2
100
AcDbLine
 10
97.23904000000552
 20
82.03340000000473
 11
97.23904000000552
 21
76.39119040001853
  0
LINE
  5
A7
100
AcDbEntity
  8
Dimensions
  6
ByBlock
 62
    0
370
   -2
100
AcDbLine
 10
124.2390400000055
 20
82.03340000000473
 11
124.2390400000055
 21
76.39119040001853
  0
LINE
  5
A8
100
AcDbEntity
  8
Dimensions
  6
ByBlock
 62
    0
370
   -2
100
AcDbLine
 10
97.23904000000552
 20
76.44119040001853
 11
124.2390400000055
 21
76.44119040001853
  0
SOLID
  5
A9
100
AcDbEntity
  8
Dimensions
  6
ByBlock
 62
    0
370
   -2
100
AcDbTrace
 10
97.23904000000552
 20
76.44119040001853
 30
0
 11
98.23904000000552
 21
76.60770426312766
 31
0
 12
98.23904000000552
 22
76.2746765369094
 32
0
 13
98.23904000000552
 23
76.2746765369094
 33
0
  0
SOLID
  5
AA
100
AcDbEntity
  8
Dimensions
  6
ByBlock
 62
    0
370
   -2
100
AcDbTrace
 10
124.2390400000055
 20
76.44119040001853
 30
0
 11
123.2390400000055
 21
76.2746765369094
 31
0
 12
123.2390400000055
 22
76.60770426312766
 32
0
 13
123.2390400000055
 23
76.60770426312766
 33
0
  0
MTEXT
  5
AB
100
AcDbEntity
  8
Dimensions
  6
CONTINUOUS
 62
    0
370
   -2
100
AcDbMText
 10
110.7390400000055
 20
77.04119040001852
 30
0
 40
1
 41
1.222222222222222
 71
    5
 72
    1
  1
27
  7
standard
210
0
220
0
230
1
 50
0
 73
    2
 44
1
  0
ENDBLK
  5
5A
330
58
100
AcDbEntity
  8
0
100
AcDbBlockEnd
  0
BLOCK
  5
5C
330
5B
100
AcDbEntity
  8
0
100
AcDbBlockBegin
  2
*D19
 70
    1
 10
0
 20
0
  3
*D19
  1

  0
LINE
  5
AC
100
AcDbEntity
  8
Dimensions
  6
ByBlock
 62
    0
370
   -2
100
AcDbLine
 10
155.7140400000055
 20
87.05840000000472
 11
148.9788640000427
 21
87.05840000000472
  0
LINE
  5
AD
100
AcDbEntity
  8
Dimensions
  6
ByBlock
 62
    0
370
   -2
100
AcDbLine
 10
155.7140400000055
 20
83.55840000000472
 11
148.9788640000427
 21
83.55840000000472
  0
LINE
  5
AE
100
AcDbEntity
  8
Dimensions
  6
ByBlock
 62
    0
370
   -2
100
AcDbLine
 10
149.0288640000427
 20
87.05840000000472
 11
149.0288640000427
 21
83.55840000000472
  0
SOLID
  5
AF
100
AcDbEntity
  8
Dimensions
  6
ByBlock
 62
    0
370
   -2
100
AcDbTrace
 10
149.0288640000427
 20
87.05840000000472
 30
0
 11
149.1953778631519
 21
86.05840000000472
 31
0
 12
148.8623501369336
 22
86.05840000000472
 32
0
 13
148.8623501369336
 23
86.05840000000472
 33
0
  0
SOLID
  5
B0
100
AcDbEntity
  8
Dimensions
  6
ByBlock
 62
    0
370
   -2
100
AcDbTrace
 10
149.0288640000427
 20
83.55840000000472
 30
0
 11
148.8623501369336
 21
84.55840000000472
 31
0
 12
149.1953778631519
 22
84.55840000000472
 32
0
 13
149.1953778631519
 23
84.55840000000472
 33
0
  0
MTEXT
  5
B1
100
AcDbEntity
  8
Dimensions
  6
CONTINUOUS
 62
    0
370
   -2
100
AcDbMText
 10
148.4288640000427
 20
85.30840000000472
 30
0
 40
1
 41
1.555555555555679
 71
    5
 72
    1
  1
3.5
  7
standard
210
0
220
0
230
1
 50
90
 73
    2
 44
1
  0
ENDBLK
  5
5D
330
5B
100
AcDbEntity
  8
0
100
AcDbBlockEnd
  0
BLOCK
  5
5F
330
5E
100
AcDbEntity
  8
0
100
AcDbBlockBegin
  2
*D12
 70
    1
 10
0
 20
0
  3
*D12
  1

  0
LINE
  5
B2
100
AcDbEntity
  8
Dimensions
  6
ByBlock
 62
    0
370
   -2
100
AcDbLine
 10
100.7390400000055
 20
108.5834000000047
 11
100.7390400000055
 21
125.6169760000305
  0
LINE
  5
B3
100
AcDbEntity
  8
Dimensions
  6
ByBlock
 62
    0
370
   -2
100
AcDbLine
 10
120.7390400000055
 20
108.5834000000047
 11
120.7390400000055
 21
125.6169760000305
  0
LINE
  5
B4
100
AcDbEntity
  8
Dimensions
  6
ByBlock
 62
    0
370
   -2
100
AcDbLine
 10
100.7390400000055
 20
125.5669760000305
 11
120.7390400000055
 21
125.5669760000305
  0
SOLID
  5
B5
100
AcDbEntity
  8
Dimensions
  6
ByBlock
 62
    0
370
   -2
100
AcDbTrace
 10
100.7390400000055
 20
125.5669760000305
 30
0
 11
101.7390400000055
 21
125.7334898631396
 31
0
 12
101.7390400000055
 22
125.4004621369213
 32
0
 13
101.7390400000055
 23
125.4004621369213
 33
0
  0
SOLID
  5
B6
100
AcDbEntity
  8
Dimensions
  6
ByBlock
 62
    0
370
   -2
100
AcDbTrace
 10
120.7390400000055
 20
125.5669760000305
 30
0
 11
119.7390400000055
 21
125.4004621369213
 31
0
 12
119.7390400000055
 22
125.7334898631396
 32
0
 13
119.7390400000055
 23
125.7334898631396
 33
0
  0
MTEXT
  5
B7
100
AcDbEntity
  8
Dimensions
  6
CONTINUOUS
 62
    0
370
   -2
100
AcDbMText
 10
110.7390400000055
 20
126.1669760000305
 30
0
 40
1
 41
1.222222222222222
 71
    5
 72
    1
  1
20
  7
standard
210
0
220
0
230
1
 50
0
 73
    2
 44
1
  0
ENDBLK
  5
60
330
5E
100
AcDbEntity
  8
0
100
AcDbBlockEnd
  0
BLOCK
  5
62
330
61
100
AcDbEntity
  8
0
100
AcDbBlockBegin
  2
*D7
 70
    1
 10
0
 20
0
  3
*D7
  1

  0
LINE
  5
B8
100
AcDbEntity
  8
Dimensions
  6
ByBlock
 62
    0
370
   -2
100
AcDbLine
 10
154.2390400000055
 20
34.80220000000697
 11
154.2390400000055
 21
29.95
  0
LINE
  5
B9
100
AcDbEntity
  8
Dimensions
  6
ByBlock
 62
    0
370
   -2
100
AcDbLine
 10
184.2390400000055
 20
34.80220000000697
 11
184.2390400000055
 21
29.95
  0
LINE
  5
BA
100
AcDbEntity
  8
Dimensions
  6
ByBlock
 62
    0
370
   -2
100
AcDbLine
 10
154.2390400000055
 20
30
 11
184.2390400000055
 21
30
  0
SOLID
  5
BB
100
AcDbEntity
  8
Dimensions
  6
ByBlock
 62
    0
370
   -2
100
AcDbTrace
 10
154.2390400000055
 20
30
 30
0
 11
155.2390400000055
 21
30.16651386310913
 31
0
 12
155.2390400000055
 22
29.83348613689086
 32
0
 13
155.2390400000055
 23
29.83348613689086
 33
0
  0
SOLID
  5
BC
100
AcDbEntity
  8
Dimensions
  6
ByBlock
 62
    0
370
   -2
100
AcDbTrace
 10
184.2390400000055
 20
30
 30
0
 11
183.2390400000055
 21
29.83348613689087
 31
0
 12
183.2390400000055
 22
30.16651386310913
 32
0
 13
183.2390400000055
 23
30.16651386310913
 33
0
  0
MTEXT
  5
BD
100
AcDbEntity
  8
Dimensions
  6
CONTINUOUS
 62
    0
370
   -2
100
AcDbMText
 10
169.2390400000055
 20
30.6
 30
0
 40
1
 41
1.222222222222284
 71
    5
 72
    1
  1
30
  7
standard
210
0
220
0
230
1
 50
0
 73
    2
 44
1
  0
ENDBLK
  5
63
330
61
100
AcDbEntity
  8
0
100
AcDbBlockEnd
  0
BLOCK
  5
65
330
64
100
AcDbEntity
  8
0
100
AcDbBlockBegin
  2
*D8
 70
    1
 10
0
 20
0
  3
*D8
  1

  0
LINE
  5
BE
100
AcDbEntity
  8
Dimensions
  6
ByBlock
 62
    0
370
   -2
100
AcDbLine
 10
120.7390400000055
 20
82.03340000000473
 11
120.7390400000055
 21
79.95
  0
LINE
  5
BF
100
AcDbEntity
  8
Dimensions
  6
ByBlock
 62
    0
370
   -2
100
AcDbLine
 10
124.2390400000055
 20
82.03340000000473
 11
124.2390400000055
 21
79.95
  0
LINE
  5
C0
100
AcDbEntity
  8
Dimensions
  6
ByBlock
 62
    0
370
   -2
100
AcDbLine
 10
120.7390400000055
 20
80
 11
124.2390400000055
 21
80
  0
SOLID
  5
C1
100
AcDbEntity
  8
Dimensions
  6
ByBlock
 62
    0
370
   -2
100
AcDbTrace
 10
120.7390400000055
 20
80
 30
0
 11
121.7390400000055
 21
80.16651386310913
 31
0
 12
121.7390400000055
 22
79.83348613689087
 32
0
 13
121.7390400000055
 23
79.83348613689087
 33
0
  0
SOLID
  5
C2
100
AcDbEntity
  8
Dimensions
  6
ByBlock
 62
    0
370
   -2
100
AcDbTrace
 10
124.2390400000055
 20
80
 30
0
 11
123.2390400000055
 21
79.83348613689087
 31
0
 12
123.2390400000055
 22
80.16651386310913
 32
0
 13
123.2390400000055
 23
80.16651386310913
 33
0
  0
MTEXT
  5
C3
100
AcDbEntity
  8
Dimensions
  6
CONTINUOUS
 62
    0
370
   -2
100
AcDbMText
 10
122.4890400000055
 20
80.59999999999999
 30
0
 40
1
 41
1.555555555555679
 71
    5
 72
    1
  1
3.5
  7
standard
210
0
220
0
230
1
 50
0
 73
    2
 44
1
  0
ENDBLK
  5
66
330
64
100
AcDbEntity
  8
0
100
AcDbBlockEnd
  0
BLOCK
  5
68
330
67
100
AcDbEntity
  8
0
100
AcDbBlockBegin
  2
*D5
 70
    1
 10
0
 20
0
  3
*D5
  1

  0
LINE
  5
C4
100
AcDbEntity
  8
Dimensions
  6
ByBlock
 62
    0
370
   -2
100
AcDbLine
 10
110.7567176695352
 20
69.84487766953661
 11
102.1558070181623
 21
61.24396701816373
  0
LINE
  5
C5
100
AcDbEntity
  8
Dimensions
  6
ByBlock
 62
    0
370
   -2
100
AcDbLine
 10
97.23904000000552
 20
34.80220000000697
 11
97.23904000000552
 21
49.37384139990095
  0
ARC
  5
C6
100
AcDbEntity
  8
Dimensions
  6
ByBlock
 62
    0
370
   -2
100
AcDbCircle
 10
97.23904000000552
 20
56.32720000000696
 40
6.903358600106011
100
AcDbArc
 50
270
 51
45.00000000000003
  0
SOLID
  5
C7
100
AcDbEntity
  8
Dimensions
  6
ByBlock
 62
    0
370
   -2
100
AcDbTrace
 10
102.1204516791029
 20
61.20861167910439
 30
0
 11
102.9004895274001
 21
60.56110274338891
 31
0
 12
102.6485797567049
 22
60.34327498147971
 32
0
 13
102.6485797567049
 23
60.34327498147971
 33
0
  0
SOLID
  5
C8
100
AcDbEntity
  8
Dimensions
  6
ByBlock
 62
    0
370
   -2
100
AcDbTrace
 10
97.23904000000552
 20
49.42384139990095
 30
0
 11
98.22436839191286
 21
49.66228390179359
 31
0
 12
98.24846801144193
 22
49.33012930711114
 32
0
 13
98.24846801144193
 23
49.33012930711114
 33
0
  0
MTEXT
  5
C9
100
AcDbEntity
  8
Dimensions
  6
CONTINUOUS
 62
    0
370
   -2
100
AcDbMText
 10
103.5245237629781
 20
53.72366737930784
 30
0
 40
1
 41
4.333333333333456
 71
    8
 72
    1
  1
135.00%%D
  7
standard
210
0
220
0
230
1
 50
67.5
 73
    2
 44
1
  0
ENDBLK
  5
69
330
67
100
AcDbEntity
  8
0
100
AcDbBlockEnd
  0
BLOCK
  5
6B
330
6A
100
AcDbEntity
  8
0
100
AcDbBlockBegin
  2
*D23
 70
    1
 10
0
 20
0
  3
*D23
  1

  0
LINE
  5
CA
100
AcDbEntity
  8
Dimensions
  6
ByBlock
 62
    0
370
   -2
100
AcDbLine
 10
181.2390400000055
 20
83.53340000000472
 11
181.2390400000055
 21
74.81832640002222
  0
LINE
  5
CB
100
AcDbEntity
  8
Dimensions
  6
ByBlock
 62
    0
370
   -2
100
AcDbLine
 10
182.7390400000055
 20
83.53340000000472
 11
182.7390400000055
 21
74.81832640002222
  0
LINE
  5
CC
100
AcDbEntity
  8
Dimensions
  6
ByBlock
 62
    0
370
   -2
100
AcDbLine
 10
179.2390400000055
 20
74.86832640002221
 11
184.7390400000055
 21
74.86832640002221
  0
SOLID
  5
CD
100
AcDbEntity
  8
Dimensions
  6
ByBlock
 62
    0
370
   -2
100
AcDbTrace
 10
181.2390400000055
 20
74.86832640002221
 30
0
 11
180.2390400000055
 21
74.70181253691308
 31
0
 12
180.2390400000055
 22
75.03484026313134
 32
0
 13
180.2390400000055
 23
75.03484026313134
 33
0
  0
SOLID
  5
CE
100
AcDbEntity
  8
Dimensions
  6
ByBlock
 62
    0
370
   -2
100
AcDbTrace
 10
182.7390400000055
 20
74.86832640002221
 30
0
 11
183.7390400000055
 21
75.03484026313134
 31
0
 12
183.7390400000055
 22
74.70181253691308
 32
0
 13
183.7390400000055
 23
74.70181253691308
 33
0
  0
MTEXT
  5
CF
100
AcDbEntity
  8
Dimensions
  6
CONTINUOUS
 62
    0
370
   -2
100
AcDbMText
 10
181.9890400000055
 20
75.46832640002221
 30
0
 40
1
 41
1.333333333333395
 71
    5
 72
    1
  1
1.5
  7
standard
210
0
220
0
230
1
 50
0
 73
    2
 44
1
  0
ENDBLK
  5
6C
330
6A
100
AcDbEntity
  8
0
100
AcDbBlockEnd
  0
BLOCK
  5
6E
330
6D
100
AcDbEntity
  8
0
100
AcDbBlockBegin
  2
*D14
 70
    1
 10
0
 20
0
  3
*D14
  1

  0
LINE
  5
D0
100
AcDbEntity
  8
Dimensions
  6
ByBlock
 62
    0
370
   -2
100
AcDbLine
 10
154.2390400000055
 20
82.03340000000472
 11
154.2390400000055
 21
76.43000000001949
  0
LINE
  5
D1
100
AcDbEntity
  8
Dimensions
  6
ByBlock
 62
    0
370
   -2
100
AcDbLine
 10
184.2390400000055
 20
82.03340000000472
 11
184.2390400000055
 21
76.43000000001949
  0
LINE
  5
D2
100
AcDbEntity
  8
Dimensions
  6
ByBlock
 62
    0
370
   -2
100
AcDbLine
 10
154.2390400000055
 20
76.48000000001949
 11
184.2390400000055
 21
76.48000000001949
  0
SOLID
  5
D3
100
AcDbEntity
  8
Dimensions
  6
ByBlock
 62
    0
370
   -2
100
AcDbTrace
 10
154.2390400000055
 20
76.48000000001949
 30
0
 11
155.2390400000055
 21
76.64651386312862
 31
0
 12
155.2390400000055
 22
76.31348613691036
 32
0
 13
155.2390400000055
 23
76.31348613691036
 33
0
  0
SOLID
  5
D4
100
AcDbEntity
  8
Dimensions
  6
ByBlock
 62
    0
370
   -2
100
AcDbTrace
 10
184.2390400000055
 20
76.48000000001949
 30
0
 11
183.2390400000055
 21
76.31348613691036
 31
0
 12
183.2390400000055
 22
76.64651386312862
 32
0
 13
183.2390400000055
 23
76.64651386312862
 33
0
  0
MTEXT
  5
D5
100
AcDbEntity
  8
Dimensions
  6
CONTINUOUS
 62
    0
370
   -2
100
AcDbMText
 10
169.2390400000055
 20
77.08000000001948
 30
0
 40
1
 41
1.222222222222284
 71
    5
 72
    1
  1
30
  7
standard
210
0
220
0
230
1
 50
0
 73
    2
 44
1
  0
ENDBLK
  5
6F
330
6D
100
AcDbEntity
  8
0
100
AcDbBlockEnd
  0
BLOCK
  5
71
330
70
100
AcDbEntity
  8
0
100
AcDbBlockBegin
  2
*D6
 70
    1
 10
0
 20
0
  3
*D6
  1

  0
LINE
  5
D6
100
AcDbEntity
  8
Dimensions
  6
ByBlock
 62
    0
370
   -2
100
AcDbLine
 10
184.2640400000055
 20
56.32720000000695
 11
190.05
 21
56.32720000000695
  0
LINE
  5
D7
100
AcDbEntity
  8
Dimensions
  6
ByBlock
 62
    0
370
   -2
100
AcDbLine
 10
184.2640400000055
 20
34.82720000000697
 11
190.05
 21
34.82720000000697
  0
LINE
  5
D8
100
AcDbEntity
  8
Dimensions
  6
ByBlock
 62
    0
370
   -2
100
AcDbLine
 10
190
 20
56.32720000000695
 11
190
 21
34.82720000000697
  0
SOLID
  5
D9
100
AcDbEntity
  8
Dimensions
  6
ByBlock
 62
    0
370
   -2
100
AcDbTrace
 10
190
 20
56.32720000000695
 30
0
 11
190.1665138631091
 21
55.32720000000695
 31
0
 12
189.8334861368909
 22
55.32720000000695
 32
0
 13
189.8334861368909
 23
55.32720000000695
 33
0
  0
SOLID
  5
DA
100
AcDbEntity
  8
Dimensions
  6
ByBlock
 62
    0
370
   -2
100
AcDbTrace
 10
190
 20
34.82720000000697
 30
0
 11
189.8334861368909
 21
35.82720000000697
 31
0
 12
190.1665138631091
 22
35.82720000000697
 32
0
 13
190.1665138631091
 23
35.82720000000697
 33
0
  0
MTEXT
  5
DB
100
AcDbEntity
  8
Dimensions
  6
CONTINUOUS
 62
    0
370
   -2
100
AcDbMText
 10
189.4
 20
45.57720000000695
 30
0
 40
1
 41
2.111111111111173
 71
    5
 72
    1
  1
21.5
  7
standard
210
0
220
0
230
1
 50
90
 73
    2
 44
1
  0
ENDBLK
  5
72
330
70
100
AcDbEntity
  8
0
100
AcDbBlockEnd
  0
BLOCK
  5
74
330
73
100
AcDbEntity
  8
0
100
AcDbBlockBegin
  2
*D13
 70
    1
 10
0
 20
0
  3
*D13
  1

  0
LINE
  5
DC
100
AcDbEntity
  8
Dimensions
  6
ByBlock
 62
    0
370
   -2
100
AcDbLine
 10
151.2390400000055
 20
120.7047203435644
 11
151.2390400000055
 21
123.9949600000314
  0
LINE
  5
DD
100
AcDbEntity
  8
Dimensions
  6
ByBlock
 62
    0
370
   -2
100
AcDbLine
 10
187.2390400000055
 20
120.7047203435644
 11
187.2390400000055
 21
123.9949600000314
  0
LINE
  5
DE
100
AcDbEntity
  8
Dimensions
  6
ByBlock
 62
    0
370
   -2
100
AcDbLine
 10
151.2390400000055
 20
123.9449600000314
 11
187.2390400000055
 21
123.9449600000314
  0
SOLID
  5
DF
100
AcDbEntity
  8
Dimensions
  6
ByBlock
 62
    0
370
   -2
100
AcDbTrace
 10
151.2390400000055
 20
123.9449600000314
 30
0
 11
152.2390400000055
 21
124.1114738631406
 31
0
 12
152.2390400000055
 22
123.7784461369223
 32
0
 13
152.2390400000055
 23
123.7784461369223
 33
0
  0
SOLID
  5
E0
100
AcDbEntity
  8
Dimensions
  6
ByBlock
 62
    0
370
   -2
100
AcDbTrace
 10
187.2390400000055
 20
123.9449600000314
 30
0
 11
186.2390400000055
 21
123.7784461369223
 31
0
 12
186.2390400000055
 22
124.1114738631406
 32
0
 13
186.2390400000055
 23
124.1114738631406
 33
0
  0
MTEXT
  5
E1
100
AcDbEntity
  8
Dimensions
  6
CONTINUOUS
 62
    0
370
   -2
100
AcDbMText
 10
169.2390400000055
 20
124.5449600000314
 30
0
 40
1
 41
1.222222222222346
 71
    5
 72
    1
  1
36
  7
standard
210
0
220
0
230
1
 50
0
 73
    2
 44
1
  0
ENDBLK
  5
75
330
73
100
AcDbEntity
  8
0
100
AcDbBlockEnd
  0
BLOCK
  5
77
330
76
100
AcDbEntity
  8
0
100
AcDbBlockBegin
  2
*D16
 70
    1
 10
0
 20
0
  3
*D16
  1

  0
LINE
  5
E2
100
AcDbEntity
  8
Dimensions
  6
ByBlock
 62
    0
370
   -2
100
AcDbLine
 10
97.2390400000055
 20
87.08340000000474
 11
97.2390400000055
 21
92.37384000002373
  0
LINE
  5
E3
100
AcDbEntity
  8
Dimensions
  6
ByBlock
 62
    0
370
   -2
100
AcDbLine
 10
124.2390400000055
 20
87.08340000000474
 11
124.2390400000055
 21
92.37384000002373
  0
LINE
  5
E4
100
AcDbEntity
  8
Dimensions
  6
ByBlock
 62
    0
370
   -2
100
AcDbLine
 10
97.2390400000055
 20
92.32384000002374
 11
124.2390400000055
 21
92.32384000002374
  0
SOLID
  5
E5
100
AcDbEntity
  8
Dimensions
  6
ByBlock
 62
    0
370
   -2
100
AcDbTrace
 10
97.2390400000055
 20
92.32384000002374
 30
0
 11
98.2390400000055
 21
92.49035386313287
 31
0
 12
98.2390400000055
 22
92.15732613691461
 32
0
 13
98.2390400000055
 23
92.15732613691461
 33
0
  0
SOLID
  5
E6
100
AcDbEntity
  8
Dimensions
  6
ByBlock
 62
    0
370
   -2
100
AcDbTrace
 10
124.2390400000055
 20
92.32384000002374
 30
0
 11
123.2390400000055
 21
92.15732613691461
 31
0
 12
123.2390400000055
 22
92.49035386313287
 32
0
 13
123.2390400000055
 23
92.49035386313287
 33
0
  0
MTEXT
  5
E7
100
AcDbEntity
  8
Dimensions
  6
CONTINUOUS
 62
    0
370
   -2
100
AcDbMText
 10
110.7390400000055
 20
92.92384000002373
 30
0
 40
1
 41
1.222222222222222
 71
    5
 72
    1
  1
27
  7
standard
210
0
220
0
230
1
 50
0
 73
    2
 44
1
  0
ENDBLK
  5
78
330
76
100
AcDbEntity
  8
0
100
AcDbBlockEnd
  0
BLOCK
  5
7A
330
79
100
AcDbEntity
  8
0
100
AcDbBlockBegin
  2
*D15
 70
    1
 10
0
 20
0
  3
*D15
  1

  0
LINE
  5
E8
100
AcDbEntity
  8
Dimensions
  6
ByBlock
 62
    0
370
   -2
100
AcDbLine
 10
155.7390400000055
 20
88.58340000000473
 11
155.7390400000055
 21
93.76648000002393
  0
LINE
  5
E9
100
AcDbEntity
  8
Dimensions
  6
ByBlock
 62
    0
370
   -2
100
AcDbLine
 10
182.7390400000055
 20
88.58340000000473
 11
182.7390400000055
 21
93.76648000002393
  0
LINE
  5
EA
100
AcDbEntity
  8
Dimensions
  6
ByBlock
 62
    0
370
   -2
100
AcDbLine
 10
155.7390400000055
 20
93.71648000002394
 11
182.7390400000055
 21
93.71648000002394
  0
SOLID
  5
EB
100
AcDbEntity
  8
Dimensions
  6
ByBlock
 62
    0
370
   -2
100
AcDbTrace
 10
155.7390400000055
 20
93.71648000002394
 30
0
 11
156.7390400000055
 21
93.88299386313307
 31
0
 12
156.7390400000055
 22
93.5499661369148
 32
0
 13
156.7390400000055
 23
93.5499661369148
 33
0
  0
SOLID
  5
EC
100
AcDbEntity
  8
Dimensions
  6
ByBlock
 62
    0
370
   -2
100
AcDbTrace
 10
182.7390400000055
 20
93.71648000002394
 30
0
 11
181.7390400000055
 21
93.5499661369148
 31
0
 12
181.7390400000055
 22
93.88299386313307
 32
0
 13
181.7390400000055
 23
93.88299386313307
 33
0
  0
MTEXT
  5
ED
100
AcDbEntity
  8
Dimensions
  6
CONTINUOUS
 62
    0
370
   -2
100
AcDbMText
 10
169.2390400000055
 20
94.31648000002393
 30
0
 40
1
 41
1.222222222222222
 71
    5
 72
    1
  1
27
  7
standard
210
0
220
0
230
1
 50
0
 73
    2
 44
1
  0
ENDBLK
  5
7B
330
79
100
AcDbEntity
  8
0
100
AcDbBlockEnd
  0
BLOCK
  5
7D
330
7C
100
AcDbEntity
  8
0
100
AcDbBlockBegin
  2
*D1
 70
    1
 10
0
 20
0
  3
*D1
  1

  0
LINE
  5
EE
100
AcDbEntity
  8
Dimensions
  6
ByBlock
 62
    0
370
   -2
100
AcDbLine
 10
114.7640400000055
 20
53.82720000000697
 11
120.05
 21
53.82720000000697
  0
LINE
  5
EF
100
AcDbEntity
  8
Dimensions
  6
ByBlock
 62
    0
370
   -2
100
AcDbLine
 10
114.7640400000055
 20
39.82720000000695
 11
120.05
 21
39.82720000000695
  0
LINE
  5
F0
100
AcDbEntity
  8
Dimensions
  6
ByBlock
 62
    0
370
   -2
100
AcDbLine
 10
120
 20
53.82720000000697
 11
120
 21
39.82720000000695
  0
SOLID
  5
F1
100
AcDbEntity
  8
Dimensions
  6
ByBlock
 62
    0
370
   -2
100
AcDbTrace
 10
120
 20
53.82720000000697
 30
0
 11
120.1665138631091
 21
52.82720000000697
 31
0
 12
119.8334861368909
 22
52.82720000000697
 32
0
 13
119.8334861368909
 23
52.82720000000697
 33
0
  0
SOLID
  5
F2
100
AcDbEntity
  8
Dimensions
  6
ByBlock
 62
    0
370
   -2
100
AcDbTrace
 10
120
 20
39.82720000000695
 30
0
 11
119.8334861368909
 21
40.82720000000695
 31
0
 12
120.1665138631091
 22
40.82720000000695
 32
0
 13
120.1665138631091
 23
40.82720000000695
 33
0
  0
MTEXT
  5
F3
100
AcDbEntity
  8
Dimensions
  6
CONTINUOUS
 62
    0
370
   -2
100
AcDbMText
 10
119.4
 20
46.82720000000695
 30
0
 40
1
 41
1.111111111111111
 71
    5
 72
    1
  1
14
  7
standard
210
0
220
0
230
1
 50
90
 73
    2
 44
1
  0
ENDBLK
  5
7E
330
7C
100
AcDbEntity
  8
0
100
AcDbBlockEnd
  0
BLOCK
  5
80
330
7F
100
AcDbEntity
  8
0
100
AcDbBlockBegin
  2
*D3
 70
    1
 10
0
 20
0
  3
*D3
  1

  0
LINE
  5
F4
100
AcDbEntity
  8
Dimensions
  6
ByBlock
 62
    0
370
   -2
100
AcDbLine
 10
124.2640400000055
 20
56.32720000000694
 11
130.05
 21
56.32720000000694
  0
LINE
  5
F5
100
AcDbEntity
  8
Dimensions
  6
ByBlock
 62
    0
370
   -2
100
AcDbLine
 10
124.2640400000055
 20
34.82720000000697
 11
130.05
 21
34.82720000000697
  0
LINE
  5
F6
100
AcDbEntity
  8
Dimensions
  6
ByBlock
 62
    0
370
   -2
100
AcDbLine
 10
130
 20
56.32720000000694
 11
130
 21
34.82720000000697
  0
SOLID
  5
F7
100
AcDbEntity
  8
Dimensions
  6
ByBlock
 62
    0
370
   -2
100
AcDbTrace
 10
130
 20
56.32720000000694
 30
0
 11
130.1665138631091
 21
55.32720000000694
 31
0
 12
129.8334861368909
 22
55.32720000000694
 32
0
 13
129.8334861368909
 23
55.32720000000694
 33
0
  0
SOLID
  5
F8
100
AcDbEntity
  8
Dimensions
  6
ByBlock
 62
    0
370
   -2
100
AcDbTrace
 10
130
 20
34.82720000000697
 30
0
 11
129.8334861368909
 21
35.82720000000697
 31
0
 12
130.1665138631091
 22
35.82720000000697
 32
0
 13
130.1665138631091
 23
35.82720000000697
 33
0
  0
MTEXT
  5
F9
100
AcDbEntity
  8
Dimensions
  6
CONTINUOUS
 62
    0
370
   -2
100
AcDbMText
 10
129.4
 20
45.57720000000695
 30
0
 40
1
 41
2.111111111111173
 71
    5
 72
    1
  1
21.5
  7
standard
210
0
220
0
230
1
 50
90
 73
    2
 44
1
  0
ENDBLK
  5
81
330
7F
100
AcDbEntity
  8
0
100
AcDbBlockEnd
  0
BLOCK
  5
83
330
82
100
AcDbEntity
  8
0
100
AcDbBlockBegin
  2
*D17
 70
    1
 10
0
 20
0
  3
*D17
  1

  0
LINE
  5
FA
100
AcDbEntity
  8
Dimensions
  6
ByBlock
 62
    0
370
   -2
100
AcDbLine
 10
102.1381293486326
 20
61.22628934863406
 11
106.7394983630069
 21
65.82765836300834
  0
LINE
  5
FB
100
AcDbEntity
  8
Dimensions
  6
ByBlock
 62
    0
370
   -2
100
AcDbLine
 10
124.2567176695352
 20
56.30952233047728
 11
114.7385816370041
 21
65.82765836300834
  0
ARC
  5
FC
100
AcDbEntity
  8
Dimensions
  6
ByBlock
 62
    0
370
   -2
100
AcDbCircle
 10
110.7390400000055
 20
69.82720000000694
 40
5.606206026319315
100
AcDbArc
 50
225
 51
315
  0
SOLID
  5
FD
100
AcDbEntity
  8
Dimensions
  6
ByBlock
 62
    0
370
   -2
100
AcDbTrace
 10
106.7748537020662
 20
65.86301370206766
 30
0
 11
107.6489190382495
 21
65.3494607304178
 31
0
 12
107.4353432609313
 22
65.09393606669026
 32
0
 13
107.4353432609313
 23
65.09393606669026
 33
0
  0
SOLID
  5
FE
100
AcDbEntity
  8
Dimensions
  6
ByBlock
 62
    0
370
   -2
100
AcDbTrace
 10
114.7032262979448
 20
65.86301370206766
 30
0
 11
114.0427367390797
 21
65.09393606669026
 31
0
 12
113.8291609617615
 22
65.3494607304178
 32
0
 13
113.8291609617615
 23
65.3494607304178
 33
0
  0
MTEXT
  5
FF
100
AcDbEntity
  8
Dimensions
  6
CONTINUOUS
 62
    0
370
   -2
100
AcDbMText
 10
110.7390400000055
 20
64.32099397368762
 30
0
 40
1
 41
3.77777777777784
 71
    8
 72
    1
  1
90.00%%D
  7
standard
210
0
220
0
230
1
 50
0
 73
    2
 44
1
  0
ENDBLK
  5
84
330
82
100
AcDbEntity
  8
0
100
AcDbBlockEnd
  0
BLOCK
  5
86
330
85
100
AcDbEntity
  8
0
100
AcDbBlockBegin
  2
*D18
 70
    1
 10
0
 20
0
  3
*D18
  1

  0
LINE
  5
100
100
AcDbEntity
  8
Dimensions
  6
ByBlock
 62
    0
370
   -2
100
AcDbLine
 10
110.7213623304759
 20
120.697398013094
 11
105.7453208327229
 21
125.673439510847
  0
LINE
  5
101
100
AcDbEntity
  8
Dimensions
  6
ByBlock
 62
    0
370
   -2
100
AcDbLine
 10
93.04049400589433
 20
103.0165296885125
 11
88.06445250814136
 21
107.9925711862655
  0
LINE
  5
102
100
AcDbEntity
  8
Dimensions
  6
ByBlock
 62
    0
370
   -2
100
AcDbLine
 10
105.7806761717822
 20
125.6380841717877
 11
88.09980784720068
 21
107.9572158472062
  0
SOLID
  5
103
100
AcDbEntity
  8
Dimensions
  6
ByBlock
 62
    0
370
   -2
100
AcDbTrace
 10
105.7806761717822
 20
125.6380841717877
 30
0
 11
105.1913124723617
 21
124.8132343088351
 31
0
 12
104.9558263088296
 22
125.0487204723672
 32
0
 13
104.9558263088296
 23
125.0487204723672
 33
0
  0
SOLID
  5
104
100
AcDbEntity
  8
Dimensions
  6
ByBlock
 62
    0
370
   -2
100
AcDbTrace
 10
88.09980784720068
 20
107.9572158472062
 30
0
 11
88.6891715466212
 21
108.7820657101588
 31
0
 12
88.92465771015327
 22
108.5465795466267
 32
0
 13
88.92465771015327
 23
108.5465795466267
 33
0
  0
MTEXT
  5
105
100
AcDbEntity
  8
Dimensions
  6
CONTINUOUS
 62
    0
370
   -2
100
AcDbMText
 10
96.51597794077951
 20
117.2219140782089
 30
0
 40
1
 41
1.222222222222284
 71
    5
 72
    1
  1
25
  7
standard
210
0
220
0
230
1
 50
44.99999999999995
 73
    2
 44
1
  0
ENDBLK
  5
87
330
85
100
AcDbEntity
  8
0
100
AcDbBlockEnd
  0
BLOCK
  5
89
330
88
100
AcDbEntity
  8
0
100
AcDbBlockBegin
  2
*D2
 70
    1
 10
0
 20
0
  3
*D2
  1

  0
LINE
  5
106
100
AcDbEntity
  8
Dimensions
  6
ByBlock
 62
    0
370
   -2
100
AcDbLine
 10
106.7390400000055
 20
53.85220000000697
 11
106.7390400000055
 21
60.05
  0
LINE
  5
107
100
AcDbEntity
  8
Dimensions
  6
ByBlock
 62
    0
370
   -2
100
AcDbLine
 10
114.7390400000055
 20
53.85220000000697
 11
114.7390400000055
 21
60.05
  0
LINE
  5
108
100
AcDbEntity
  8
Dimensions
  6
ByBlock
 62
    0
370
   -2
100
AcDbLine
 10
106.7390400000055
 20
60
 11
114.7390400000055
 21
60
  0
SOLID
  5
109
100
AcDbEntity
  8
Dimensions
  6
ByBlock
 62
    0
370
   -2
100
AcDbTrace
 10
106.7390400000055
 20
60
 30
0
 11
107.7390400000055
 21
60.16651386310914
 31
0
 12
107.7390400000055
 22
59.83348613689086
 32
0
 13
107.7390400000055
 23
59.83348613689086
 33
0
  0
SOLID
  5
10A
100
AcDbEntity
  8
Dimensions
  6
ByBlock
 62
    0
370
   -2
100
AcDbTrace
 10
114.7390400000055
 20
60
 30
0
 11
113.7390400000055
 21
59.83348613689086
 31
0
 12
113.7390400000055
 22
60.16651386310914
 32
0
 13
113.7390400000055
 23
60.16651386310914
 33
0
  0
MTEXT
  5
10B
100
AcDbEntity
  8
Dimensions
  6
CONTINUOUS
 62
    0
370
   -2
100
AcDbMText
 10
110.7390400000055
 20
60.6
 30
0
 40
1
 41
0.4444444444444444
 71
    5
 72
    1
  1
8
  7
standard
210
0
220
0
230
1
 50
0
 73
    2
 44
1
  0
ENDBLK
  5
8A
330
88
100
AcDbEntity
  8
0
100
AcDbBlockEnd
  0
BLOCK
  5
8C
330
8B
100
AcDbEntity
  8
0
100
AcDbBlockBegin
  2
*D22
 70
    1
 10
0
 20
0
  3
*D22
  1

  0
LINE
  5
10C
100
AcDbEntity
  8
Dimensions
  6
ByBlock
 62
    0
370
   -2
100
AcDbLine
 10
182.7390400000055
 20
108.5834000000047
 11
182.7390400000055
 21
113.8860320000337
  0
LINE
  5
10D
100
AcDbEntity
  8
Dimensions
  6
ByBlock
 62
    0
370
   -2
100
AcDbLine
 10
184.2390400000055
 20
108.5834000000047
 11
184.2390400000055
 21
113.8860320000337
  0
LINE
  5
10E
100
AcDbEntity
  8
Dimensions
  6
ByBlock
 62
    0
370
   -2
100
AcDbLine
 10
180.7390400000055
 20
113.8360320000337
 11
186.2390400000055
 21
113.8360320000337
  0
SOLID
  5
10F
100
AcDbEntity
  8
Dimensions
  6
ByBlock
 62
    0
370
   -2
100
AcDbTrace
 10
182.7390400000055
 20
113.8360320000337
 30
0
 11
181.7390400000055
 21
113.6695181369246
 31
0
 12
181.7390400000055
 22
114.0025458631428
 32
0
 13
181.7390400000055
 23
114.0025458631428
 33
0
  0
SOLID
  5
110
100
AcDbEntity
  8
Dimensions
  6
ByBlock
 62
    0
370
   -2
100
AcDbTrace
 10
184.2390400000055
 20
113.8360320000337
 30
0
 11
185.2390400000055
 21
114.0025458631428
 31
0
 12
185.2390400000055
 22
113.6695181369246
 32
0
 13
185.2390400000055
 23
113.6695181369246
 33
0
  0
MTEXT
  5
111
100
AcDbEntity
  8
Dimensions
  6
CONTINUOUS
 62
    0
370
   -2
100
AcDbMText
 10
183.4890400000055
 20
114.4360320000337
 30
0
 40
1
 41
1.333333333333395
 71
    5
 72
    1
  1
1.5
  7
standard
210
0
220
0
230
1
 50
0
 73
    2
 44
1
  0
ENDBLK
  5
8D
330
8B
100
AcDbEntity
  8
0
100
AcDbBlockEnd
  0
BLOCK
  5
8F
330
8E
100
AcDbEntity
  8
0
100
AcDbBlockBegin
  2
*D4
 70
    1
 10
0
 20
0
  3
*D4
  1

  0
LINE
  5
112
100
AcDbEntity
  8
Dimensions
  6
ByBlock
 62
    0
370
   -2
100
AcDbLine
 10
97.23904000000552
 20
34.80220000000697
 11
97.23904000000552
 21
29.95
  0
LINE
  5
113
100
AcDbEntity
  8
Dimensions
  6
ByBlock
 62
    0
370
   -2
100
AcDbLine
 10
124.2390400000055
 20
34.80220000000697
 11
124.2390400000055
 21
29.95
  0
LINE
  5
114
100
AcDbEntity
  8
Dimensions
  6
ByBlock
 62
    0
370
   -2
100
AcDbLine
 10
97.23904000000552
 20
30
 11
124.2390400000055
 21
30
  0
SOLID
  5
115
100
AcDbEntity
  8
Dimensions
  6
ByBlock
 62
    0
370
   -2
100
AcDbTrace
 10
97.23904000000552
 20
30
 30
0
 11
98.23904000000552
 21
30.16651386310913
 31
0
 12
98.23904000000552
 22
29.83348613689086
 32
0
 13
98.23904000000552
 23
29.83348613689086
 33
0
  0
SOLID
  5
116
100
AcDbEntity
  8
Dimensions
  6
ByBlock
 62
    0
370
   -2
100
AcDbTrace
 10
124.2390400000055
 20
30
 30
0
 11
123.2390400000055
 21
29.83348613689087
 31
0
 12
123.2390400000055
 22
30.16651386310913
 32
0
 13
123.2390400000055
 23
30.16651386310913
 33
0
  0
MTEXT
  5
117
100
AcDbEntity
  8
Dimensions
  6
CONTINUOUS
 62
    0
370
   -2
100
AcDbMText
 10
110.7390400000055
 20
30.6
 30
0
 40
1
 41
1.222222222222222
 71
    5
 72
    1
  1
27
  7
standard
210
0
220
0
230
1
 50
0
 73
    2
 44
1
  0
ENDBLK
  5
90
330
8E
100
AcDbEntity
  8
0
100
AcDbBlockEnd
  0
BLOCK
  5
92
330
91
100
AcDbEntity
  8
0
100
AcDbBlockBegin
  2
*D9
 70
    1
 10
0
 20
0
  3
*D9
  1

  0
LINE
  5
118
100
AcDbEntity
  8
Dimensions
  6
ByBlock
 62
    0
370
   -2
100
AcDbLine
 10
97.23904000000552
 20
82.03340000000473
 11
97.23904000000552
 21
79.95
  0
LINE
  5
119
100
AcDbEntity
  8
Dimensions
  6
ByBlock
 62
    0
370
   -2
100
AcDbLine
 10
100.7390400000055
 20
82.03340000000473
 11
100.7390400000055
 21
79.95
  0
LINE
  5
11A
100
AcDbEntity
  8
Dimensions
  6
ByBlock
 62
    0
370
   -2
100
AcDbLine
 10
97.23904000000552
 20
80
 11
100.7390400000055
 21
80
  0
SOLID
  5
11B
100
AcDbEntity
  8
Dimensions
  6
ByBlock
 62
    0
370
   -2
100
AcDbTrace
 10
97.23904000000552
 20
80
 30
0
 11
98.23904000000552
 21
80.16651386310913
 31
0
 12
98.23904000000552
 22
79.83348613689087
 32
0
 13
98.23904000000552
 23
79.83348613689087
 33
0
  0
SOLID
  5
11C
100
AcDbEntity
  8
Dimensions
  6
ByBlock
 62
    0
370
   -2
100
AcDbTrace
 10
100.7390400000055
 20
80
 30
0
 11
99.7390400000055
 21
79.83348613689087
 31
0
 12
99.7390400000055
 22
80.16651386310913
 32
0
 13
99.7390400000055
 23
80.16651386310913
 33
0
  0
MTEXT
  5
11D
100
AcDbEntity
  8
Dimensions
  6
CONTINUOUS
 62
    0
370
   -2
100
AcDbMText
 10
98.9890400000055
 20
80.59999999999999
 30
0
 40
1
 41
1.555555555555679
 71
    5
 72
    1
  1
3.5
  7
standard
210
0
220
0
230
1
 50
0
 73
    2
 44
1
  0
ENDBLK
  5
93
330
91
100
AcDbEntity
  8
0
100
AcDbBlockEnd
  0
BLOCK
  5
95
330
94
100
AcDbEntity
  8
0
100
AcDbBlockBegin
  2
*D10
 70
    1
 10
0
 20
0
  3
*D10
  1

  0
LINE
  5
11E
100
AcDbEntity
  8
Dimensions
  6
ByBlock
 62
    0
370
   -2
100
AcDbLine
 10
124.2640400000055
 20
105.0584000000047
 11
130.05
 21
105.0584000000047
  0
LINE
  5
11F
100
AcDbEntity
  8
Dimensions
  6
ByBlock
 62
    0
370
   -2
100
AcDbLine
 10
124.2640400000055
 20
83.55840000000474
 11
130.05
 21
83.55840000000474
  0
LINE
  5
120
100
AcDbEntity
  8
Dimensions
  6
ByBlock
 62
    0
370
   -2
100
AcDbLine
 10
130
 20
105.0584000000047
 11
130
 21
83.55840000000474
  0
SOLID
  5
121
100
AcDbEntity
  8
Dimensions
  6
ByBlock
 62
    0
370
   -2
100
AcDbTrace
 10
130
 20
105.0584000000047
 30
0
 11
130.1665138631091
 21
104.0584000000047
 31
0
 12
129.8334861368909
 22
104.0584000000047
 32
0
 13
129.8334861368909
 23
104.0584000000047
 33
0
  0
SOLID
  5
122
100
AcDbEntity
  8
Dimensions
  6
ByBlock
 62
    0
370
   -2
100
AcDbTrace
 10
130
 20
83.55840000000474
 30
0
 11
129.8334861368909
 21
84.55840000000474
 31
0
 12
130.1665138631091
 22
84.55840000000474
 32
0
 13
130.1665138631091
 23
84.55840000000474
 33
0
  0
MTEXT
  5
123
100
AcDbEntity
  8
Dimensions
  6
CONTINUOUS
 62
    0
370
   -2
100
AcDbMText
 10
129.4
 20
94.30840000000471
 30
0
 40
1
 41
2.111111111111173
 71
    5
 72
    1
  1
21.5
  7
standard
210
0
220
0
230
1
 50
90
 73
    2
 44
1
  0
ENDBLK
  5
96
330
94
100
AcDbEntity
  8
0
100
AcDbBlockEnd
  0
BLOCK
  5
98
330
97
100
AcDbEntity
  8
0
100
AcDbBlockBegin
  2
*D24
 70
    1
 10
0
 20
0
  3
*D24
  1

  0
LINE
  5
124
100
AcDbEntity
  8
Dimensions
  6
ByBlock
 62
    0
370
   -2
100
AcDbLine
 10
100.7140400000055
 20
88.55840000000474
 11
91.64755176962737
 21
88.55840000000474
  0
LINE
  5
125
100
AcDbEntity
  8
Dimensions
  6
ByBlock
 62
    0
370
   -2
100
AcDbLine
 10
100.7140400000055
 20
87.05840000000474
 11
91.64755176962737
 21
87.05840000000474
  0
LINE
  5
126
100
AcDbEntity
  8
Dimensions
  6
ByBlock
 62
    0
370
   -2
100
AcDbLine
 10
91.69755176962737
 20
90.55840000000474
 11
91.69755176962737
 21
85.05840000000474
  0
SOLID
  5
127
100
AcDbEntity
  8
Dimensions
  6
ByBlock
 62
    0
370
   -2
100
AcDbTrace
 10
91.69755176962737
 20
88.55840000000474
 30
0
 11
91.53103790651824
 21
89.55840000000474
 31
0
 12
91.8640656327365
 22
89.55840000000474
 32
0
 13
91.8640656327365
 23
89.55840000000474
 33
0
  0
SOLID
  5
128
100
AcDbEntity
  8
Dimensions
  6
ByBlock
 62
    0
370
   -2
100
AcDbTrace
 10
91.69755176962737
 20
87.05840000000474
 30
0
 11
91.8640656327365
 21
86.05840000000474
 31
0
 12
91.53103790651824
 22
86.05840000000474
 32
0
 13
91.53103790651824
 23
86.05840000000474
 33
0
  0
MTEXT
  5
129
100
AcDbEntity
  8
Dimensions
  6
CONTINUOUS
 62
    0
370
   -2
100
AcDbMText
 10
91.09755176962737
 20
87.80840000000474
 30
0
 40
1
 41
1.333333333333395
 71
    5
 72
    1
  1
1.5
  7
standard
210
0
220
0
230
1
 50
90
 73
    2
 44
1
  0
ENDBLK
  5
99
330
97
100
AcDbEntity
  8
0
100
AcDbBlockEnd
  0
ENDSEC
  0
SECTION
  2
ENTITIES
  0
LINE
  5
12A
100
AcDbEntity
  8
Frame
  6
ByLayer
 62
  256
370
   -1
100
AcDbLine
 10
97.23904000000552
 20
83.55840000000474
 11
124.2390400000055
 21
83.55840000000474
  0
LINE
  5
12B
100
AcDbEntity
  8
Frame
  6
ByLayer
 62
  256
370
   -1
100
AcDbLine
 10
97.23904000000552
 20
83.55840000000474
 11
97.23904000000552
 21
82.05840000000474
  0
LINE
  5
12C
100
AcDbEntity
  8
Frame
  6
ByLayer
 62
  256
370
   -1
100
AcDbLine
 10
124.2390400000055
 20
83.55840000000474
 11
124.2390400000055
 21
82.05840000000474
  0
LINE
  5
12D
100
AcDbEntity
  8
Frame
  6
ByLayer
 62
  256
370
   -1
100
AcDbLine
 10
100.7390400000055
 20
83.55840000000474
 11
100.7390400000055
 21
82.05840000000474
  0
LINE
  5
12E
100
AcDbEntity
  8
Frame
  6
ByLayer
 62
  256
370
   -1
100
AcDbLine
 10
120.7390400000055
 20
83.55840000000474
 11
120.7390400000055
 21
82.05840000000474
  0
LINE
  5
12F
100
AcDbEntity
  8
Frame
  6
ByLayer
 62
  256
370
   -1
100
AcDbLine
 10
97.23904000000552
 20
82.05840000000474
 11
100.7390400000055
 21
82.05840000000474
  0
LINE
  5
130
100
AcDbEntity
  8
Frame
  6
ByLayer
 62
  256
370
   -1
100
AcDbLine
 10
120.7390400000055
 20
82.05840000000474
 11
124.2390400000055
 21
82.05840000000474
  0
LINE
  5
131
100
AcDbEntity
  8
Frame
  6
ByLayer
 62
  256
370
   -1
100
AcDbLine
 10
100.7390400000055
 20
88.55840000000474
 11
120.7390400000055
 21
88.55840000000472
  0
LINE
  5
132
100
AcDbEntity
  8
Frame
  6
ByLayer
 62
  256
370
   -1
100
AcDbLine
 10
100.7390400000055
 20
87.05840000000474
 11
120.7390400000055
 21
87.05840000000474
  0
LINE
  5
133
100
AcDbEntity
  8
Frame
  6
ByLayer
 62
  256
370
   -1
100
AcDbLine
 10
97.23904000000552
 20
105.0584000000047
 11
124.2390400000055
 21
105.0584000000047
  0
LINE
  5
134
100
AcDbEntity
  8
Frame
  6
ByLayer
 62
  256
370
   -1
100
AcDbLine
 10
100.7390400000055
 20
108.5584000000047
 11
120.7390400000055
 21
108.5584000000047
  0
LINE
  5
135
100
AcDbEntity
  8
Frame
  6
ByLayer
 62
  256
370
   -1
100
AcDbLine
 10
124.2390400000055
 20
83.55840000000474
 11
124.2390400000055
 21
105.0584000000047
  0
LINE
  5
136
100
AcDbEntity
  8
Frame
  6
ByLayer
 62
  256
370
   -1
100
AcDbLine
 10
120.7390400000055
 20
83.55840000000474
 11
120.7390400000055
 21
105.0584000000047
  0
LINE
  5
137
100
AcDbEntity
  8
Frame
  6
ByLayer
 62
  256
370
   -1
100
AcDbLine
 10
100.7390400000055
 20
83.55840000000474
 11
100.7390400000055
 21
105.0584000000047
  0
LINE
  5
138
100
AcDbEntity
  8
Guides
  6
ByLayer
 62
  256
370
   -1
100
AcDbLine
 10
127.2390400000055
 20
102.0584000000047
 11
126.2390400000055
 21
102.0584000000047
  0
LINE
  5
139
100
AcDbEntity
  8
Frame (Hidden)
  6
ByLayer
 62
  256
370
   -1
100
AcDbLine
 10
120.7390400000055
 20
87.05840000000474
 11
124.2390400000055
 21
87.05840000000474
  0
LINE
  5
13A
100
AcDbEntity
  8
Frame (Hidden)
  6
ByLayer
 62
  256
370
   -1
100
AcDbLine
 10
100.7390400000055
 20
87.05840000000474
 11
97.23904000000552
 21
87.05840000000474
  0
LINE
  5
13B
100
AcDbEntity
  8
Frame
  6
ByLayer
 62
  256
370
   -1
100
AcDbLine
 10
154.2390400000055
 20
83.55840000000472
 11
154.2390400000055
 21
82.05840000000472
  0
LINE
  5
13C
100
AcDbEntity
  8
Frame
  6
ByLayer
 62
  256
370
   -1
100
AcDbLine
 10
154.2390400000055
 20
82.05840000000472
 11
184.2390400000055
 21
82.05840000000472
  0
LINE
  5
13D
100
AcDbEntity
  8
Frame
  6
ByLayer
 62
  256
370
   -1
100
AcDbLine
 10
154.2390400000055
 20
83.55840000000472
 11
184.2390400000055
 21
83.55840000000472
  0
LINE
  5
13E
100
AcDbEntity
  8
Frame
  6
ByLayer
 62
  256
370
   -1
100
AcDbLine
 10
184.2390400000055
 20
82.05840000000472
 11
184.2390400000055
 21
83.55840000000472
  0
LINE
  5
13F
100
AcDbEntity
  8
Frame
  6
ByLayer
 62
  256
370
   -1
100
AcDbLine
 10
157.2390400000055
 20
83.55840000000472
 11
157.2390400000055
 21
87.05840000000472
  0
LINE
  5
140
100
AcDbEntity
  8
Frame
  6
ByLayer
 62
  256
370
   -1
100
AcDbLine
 10
181.2390400000055
 20
83.55840000000472
 11
181.2390400000055
 21
87.05840000000472
  0
LINE
  5
141
100
AcDbEntity
  8
Frame
  6
ByLayer
 62
  256
370
   -1
100
AcDbLine
 10
155.7390400000055
 20
87.05840000000472
 11
182.7390400000055
 21
87.05840000000472
  0
LINE
  5
142
100
AcDbEntity
  8
Frame
  6
ByLayer
 62
  256
370
   -1
100
AcDbLine
 10
155.7390400000055
 20
88.55840000000472
 11
182.7390400000055
 21
88.55840000000472
  0
LINE
  5
143
100
AcDbEntity
  8
Shell
  6
ByLayer
 62
  256
370
   -1
100
AcDbLine
 10
168.4890400000055
 20
83.55840000000472
 11
168.4890400000055
 21
87.05840000000472
  0
LINE
  5
144
100
AcDbEntity
  8
Shell
  6
ByLayer
 62
  256
370
   -1
100
AcDbLine
 10
169.9890400000055
 20
83.55840000000472
 11
169.9890400000055
 21
87.05840000000472
  0
LINE
  5
145
100
AcDbEntity
  8
Guides
  6
ByLayer
 62
  256
370
   -1
100
AcDbLine
 10
169.2390400000055
 20
67.05840000000472
 11
169.2390400000055
 21
97.05840000000472
  0
LINE
  5
146
100
AcDbEntity
  8
Frame
  6
ByLayer
 62
  256
370
   -1
100
AcDbLine
 10
151.2390400000055
 20
102.0584000000047
 11
187.2390400000055
 21
102.0584000000047
  0
LINE
  5
147
100
AcDbEntity
  8
Frame
  6
ByLayer
 62
  256
370
   -1
100
AcDbLine
 10
151.2390400000055
 20
102.0584000000047
 11
151.2390400000055
 21
120.6797203435644
  0
LINE
  5
148
100
AcDbEntity
  8
Frame
  6
ByLayer
 62
  256
370
   -1
100
AcDbLine
 10
187.2390400000055
 20
102.0584000000047
 11
187.2390400000055
 21
120.6797203435644
  0
LINE
  5
149
100
AcDbEntity
  8
Frame
  6
ByLayer
 62
  256
370
   -1
100
AcDbLine
 10
151.2390400000055
 20
105.0584000000047
 11
151.2390400000055
 21
120.6797203435644
  0
LINE
  5
14A
100
AcDbEntity
  8
Frame
  6
ByLayer
 62
  256
370
   -1
100
AcDbLine
 10
151.2390400000055
 20
120.6797203435644
 11
187.2390400000055
 21
120.6797203435644
  0
LINE
  5
14B
100
AcDbEntity
  8
Frame
  6
ByLayer
 62
  256
370
   -1
100
AcDbLine
 10
154.2390400000055
 20
83.55840000000472
 11
154.2390400000055
 21
102.0584000000047
  0
LINE
  5
14C
100
AcDbEntity
  8
Frame
  6
ByLayer
 62
  256
370
   -1
100
AcDbLine
 10
155.7390400000055
 20
83.55840000000472
 11
155.7390400000055
 21
102.0584000000047
  0
LINE
  5
14D
100
AcDbEntity
  8
Frame
  6
ByLayer
 62
  256
370
   -1
100
AcDbLine
 10
182.7390400000055
 20
83.55840000000472
 11
182.7390400000055
 21
102.0584000000047
  0
LINE
  5
14E
100
AcDbEntity
  8
Frame
  6
ByLayer
 62
  256
370
   -1
100
AcDbLine
 10
184.2390400000055
 20
83.55840000000472
 11
184.2390400000055
 21
102.0584000000047
  0
LINE
  5
14F
100
AcDbEntity
  8
Guides
  6
CONTINUOUS
 62
  256
370
   -1
100
AcDbLine
 10
120.7390400000055
 20
105.0584000000047
 11
121.7390400000055
 21
105.0584000000047
  0
LINE
  5
150
100
AcDbEntity
  8
Guides
  6
CONTINUOUS
 62
  256
370
   -1
100
AcDbLine
 10
120.7390400000055
 20
105.0584000000047
 11
121.7390400000055
 21
105.0584000000047
  0
LINE
  5
151
100
AcDbEntity
  8
Guides
  6
CONTINUOUS
 62
  256
370
   -1
100
AcDbLine
 10
120.7390400000055
 20
105.0584000000047
 11
156.7390400000056
 21
105.0584000000047
  0
LINE
  5
152
100
AcDbEntity
  8
Guides
  6
CONTINUOUS
 62
  256
370
   -1
100
AcDbLine
 10
120.7390400000055
 20
108.5584000000047
 11
156.7390400000055
 21
108.5584000000047
  0
LINE
  5
153
100
AcDbEntity
  8
Frame (Hidden)
  6
ByLayer
 62
  256
370
   -1
100
AcDbLine
 10
154.2390400000055
 20
102.0584000000047
 11
154.2390400000055
 21
105.0584000000047
  0
LINE
  5
154
100
AcDbEntity
  8
Frame (Hidden)
  6
ByLayer
 62
  256
370
   -1
100
AcDbLine
 10
154.2390400000055
 20
105.0584000000047
 11
155.7390400000055
 21
105.0584000000047
  0
LINE
  5
155
100
AcDbEntity
  8
Frame (Hidden)
  6
ByLayer
 62
  256
370
   -1
100
AcDbLine
 10
155.7390400000055
 20
105.0584000000047
 11
155.7390400000055
 21
102.0584000000047
  0
LINE
  5
156
100
AcDbEntity
  8
Frame (Hidden)
  6
ByLayer
 62
  256
370
   -1
100
AcDbLine
 10
182.7390400000055
 20
102.0584000000047
 11
182.7390400000055
 21
105.0584000000047
  0
LINE
  5
157
100
AcDbEntity
  8
Frame (Hidden)
  6
ByLayer
 62
  256
370
   -1
100
AcDbLine
 10
182.7390400000055
 20
105.0584000000047
 11
184.2390400000055
 21
105.0584000000047
  0
LINE
  5
158
100
AcDbEntity
  8
Frame (Hidden)
  6
ByLayer
 62
  256
370
   -1
100
AcDbLine
 10
184.2390400000055
 20
105.0584000000047
 11
184.2390400000055
 21
102.0584000000047
  0
LINE
  5
159
100
AcDbEntity
  8
Frame (Hidden)
  6
ByLayer
 62
  256
370
   -1
100
AcDbLine
 10
154.2390400000055
 20
108.5584000000047
 11
155.7390400000055
 21
108.5584000000047
  0
LINE
  5
15A
100
AcDbEntity
  8
Frame (Hidden)
  6
ByLayer
 62
  256
370
   -1
100
AcDbLine
 10
182.7390400000055
 20
108.5584000000047
 11
184.2390400000055
 21
108.5584000000047
  0
LINE
  5
15B
100
AcDbEntity
  8
Frame (Hidden)
  6
ByLayer
 62
  256
370
   -1
100
AcDbLine
 10
154.2390400000055
 20
105.0584000000047
 11
154.2390400000055
 21
108.5584000000047
  0
LINE
  5
15C
100
AcDbEntity
  8
Frame (Hidden)
  6
ByLayer
 62
  256
370
   -1
100
AcDbLine
 10
155.7390400000055
 20
108.5584000000047
 11
155.7390400000055
 21
105.0584000000047
  0
LINE
  5
15D
100
AcDbEntity
  8
Frame (Hidden)
  6
ByLayer
 62
  256
370
   -1
100
AcDbLine
 10
182.7390400000055
 20
105.0584000000047
 11
182.7390400000055
 21
108.5584000000047
  0
LINE
  5
15E
100
AcDbEntity
  8
Frame (Hidden)
  6
ByLayer
 62
  256
370
   -1
100
AcDbLine
 10
184.2390400000055
 20
108.5584000000047
 11
184.2390400000055
 21
105.0584000000047
  0
LINE
  5
15F
100
AcDbEntity
  8
Guides
  6
ByLayer
 62
  256
370
   -1
100
AcDbLine
 10
110.7390400000055
 20
87.05840000000474
 11
110.7390400000055
 21
123.0584000000047
  0
LINE
  5
160
100
AcDbEntity
  8
Shell
  6
ByLayer
 62
  256
370
   -1
100
AcDbLine
 10
97.23904000000552
 20
34.82720000000697
 11
97.23904000000552
 21
56.32720000000695
  0
LINE
  5
161
100
AcDbEntity
  8
Shell
  6
ByLayer
 62
  256
370
   -1
100
AcDbLine
 10
124.2390400000055
 20
34.82720000000697
 11
124.2390400000055
 21
56.32720000000694
  0
LINE
  5
162
100
AcDbEntity
  8
Shell
  6
ByLayer
 62
  256
370
   -1
100
AcDbLine
 10
97.23904000000552
 20
34.82720000000697
 11
124.2390400000055
 21
34.82720000000697
  0
LINE
  5
163
100
AcDbEntity
  8
Shell
  6
ByLayer
 62
  256
370
   -1
100
AcDbLine
 10
114.7390400000055
 20
53.82720000000697
 11
114.7390400000055
 21
39.82720000000697
  0
LINE
  5
164
100
AcDbEntity
  8
Shell
  6
ByLayer
 62
  256
370
   -1
100
AcDbLine
 10
106.7390400000055
 20
53.82720000000697
 11
106.7390400000055
 21
39.82720000000697
  0
LINE
  5
165
100
AcDbEntity
  8
Shell
  6
ByLayer
 62
  256
370
   -1
100
AcDbLine
 10
106.7390400000055
 20
39.82720000000695
 11
114.7390400000055
 21
39.82720000000695
  0
LINE
  5
166
100
AcDbEntity
  8
Shell
  6
ByLayer
 62
  256
370
   -1
100
AcDbLine
 10
106.7390400000055
 20
53.82720000000697
 11
114.7390400000055
 21
53.82720000000697
  0
LINE
  5
167
100
AcDbEntity
  8
Shell
  6
ByLayer
 62
  256
370
   -1
100
AcDbLine
 10
97.23904000000552
 20
56.32720000000695
 11
110.7390400000055
 21
69.82720000000694
  0
LINE
  5
168
100
AcDbEntity
  8
Shell
  6
ByLayer
 62
  256
370
   -1
100
AcDbLine
 10
124.2390400000055
 20
56.32720000000694
 11
110.7390400000055
 21
69.82720000000694
  0
LINE
  5
169
100
AcDbEntity
  8
Shell
  6
ByLayer
 62
  256
370
   -1
100
AcDbLine
 10
154.2390400000055
 20
34.82720000000697
 11
184.2390400000055
 21
34.82720000000697
  0
LINE
  5
16A
100
AcDbEntity
  8
Shell
  6
ByLayer
 62
  256
370
   -1
100
AcDbLine
 10
154.2390400000055
 20
56.32720000000695
 11
184.2390400000055
 21
56.32720000000695
  0
LINE
  5
16B
100
AcDbEntity
  8
Shell
  6
ByLayer
 62
  256
370
   -1
100
AcDbLine
 10
154.2390400000055
 20
56.32720000000695
 11
154.2390400000055
 21
34.82720000000697
  0
LINE
  5
16C
100
AcDbEntity
  8
Shell
  6
ByLayer
 62
  256
370
   -1
100
AcDbLine
 10
184.2390400000055
 20
34.82720000000697
 11
184.2390400000055
 21
56.32720000000695
  0
DIMENSION
  5
16D
100
AcDbEntity
  8
Dimensions
  6
ByLayer
 62
  256
370
   -1
100
AcDbDimension
  2
*D1
 10
120
 20
39.82720000000695
 30
0
 11
119.4
 21
46.82720000000695
 31
0
 70
   33
 71
    5
  3
Standard
 53
0
210
0
220
0
230
1
100
AcDbAlignedDimension
 13
114.7390400000055
 23
53.82720000000697
 33
0
 14
114.7390400000055
 24
39.82720000000695
 34
0
  0
DIMENSION
  5
16E
100
AcDbEntity
  8
Dimensions
  6
ByLayer
 62
  256
370
   -1
100
AcDbDimension
  2
*D2
 10
114.7390400000055
 20
60
 30
0
 11
110.7390400000055
 21
60.6
 31
0
 70
   33
 71
    5
  3
Standard
 53
0
210
0
220
0
230
1
100
AcDbAlignedDimension
 13
106.7390400000055
 23
53.82720000000697
 33
0
 14
114.7390400000055
 24
53.82720000000697
 34
0
  0
DIMENSION
  5
16F
100
AcDbEntity
  8
Dimensions
  6
ByLayer
 62
  256
370
   -1
100
AcDbDimension
  2
*D3
 10
130
 20
34.82720000000697
 30
0
 11
129.4
 21
45.57720000000695
 31
0
 70
   33
 71
    5
  3
Standard
 53
0
210
0
220
0
230
1
100
AcDbAlignedDimension
 13
124.2390400000055
 23
56.32720000000694
 33
0
 14
124.2390400000055
 24
34.82720000000697
 34
0
  0
DIMENSION
  5
170
100
AcDbEntity
  8
Dimensions
  6
ByLayer
 62
  256
370
   -1
100
AcDbDimension
  2
*D4
 10
124.2390400000055
 20
30
 30
0
 11
110.7390400000055
 21
30.6
 31
0
 70
   33
 71
    5
  3
Standard
 53
0
210
0
220
0
230
1
100
AcDbAlignedDimension
 13
97.23904000000552
 23
34.82720000000697
 33
0
 14
124.2390400000055
 24
34.82720000000697
 34
0
  0
DIMENSION
  5
171
100
AcDbEntity
  8
Dimensions
  6
ByLayer
 62
  256
370
   -1
100
AcDbDimension
  2
*D5
 10
97.23904000000552
 20
34.82720000000697
 30
0
 11
0
 21
0
 31
0
 70
   34
 71
    5
  3
Standard
 53
0
210
0
220
0
230
1
100
AcDb2LineAngularDimension
 13
97.23904000000552
 23
56.32720000000695
 33
0
 14
110.7390400000055
 24
69.82720000000694
 34
0
 15
97.23904000000552
 25
56.32720000000695
 35
0
 16
100
 26
50
 36
0
  0
DIMENSION
  5
172
100
AcDbEntity
  8
Dimensions
  6
ByLayer
 62
  256
370
   -1
100
AcDbDimension
  2
*D6
 10
190
 20
34.82720000000697
 30
0
 11
189.4
 21
45.57720000000695
 31
0
 70
   33
 71
    5
  3
Standard
 53
0
210
0
220
0
230
1
100
AcDbAlignedDimension
 13
184.2390400000055
 23
56.32720000000695
 33
0
 14
184.2390400000055
 24
34.82720000000697
 34
0
  0
DIMENSION
  5
173
100
AcDbEntity
  8
Dimensions
  6
ByLayer
 62
  256
370
   -1
100
AcDbDimension
  2
*D7
 10
184.2390400000055
 20
30
 30
0
 11
169.2390400000055
 21
30.6
 31
0
 70
   33
 71
    5
  3
Standard
 53
0
210
0
220
0
230
1
100
AcDbAlignedDimension
 13
154.2390400000055
 23
34.82720000000697
 33
0
 14
184.2390400000055
 24
34.82720000000697
 34
0
  0
DIMENSION
  5
174
100
AcDbEntity
  8
Dimensions
  6
ByLayer
 62
  256
370
   -1
100
AcDbDimension
  2
*D8
 10
124.2390400000055
 20
80
 30
0
 11
122.4890400000055
 21
80.59999999999999
 31
0
 70
   33
 71
    5
  3
Standard
 53
0
210
0
220
0
230
1
100
AcDbAlignedDimension
 13
120.7390400000055
 23
82.05840000000474
 33
0
 14
124.2390400000055
 24
82.05840000000474
 34
0
  0
DIMENSION
  5
175
100
AcDbEntity
  8
Dimensions
  6
ByLayer
 62
  256
370
   -1
100
AcDbDimension
  2
*D9
 10
100.7390400000055
 20
80
 30
0
 11
98.9890400000055
 21
80.59999999999999
 31
0
 70
   33
 71
    5
  3
Standard
 53
0
210
0
220
0
230
1
100
AcDbAlignedDimension
 13
97.23904000000552
 23
82.05840000000474
 33
0
 14
100.7390400000055
 24
82.05840000000474
 34
0
  0
DIMENSION
  5
176
100
AcDbEntity
  8
Dimensions
  6
ByLayer
 62
  256
370
   -1
100
AcDbDimension
  2
*D10
 10
130
 20
83.55840000000474
 30
0
 11
129.4
 21
94.30840000000471
 31
0
 70
   33
 71
    5
  3
Standard
 53
0
210
0
220
0
230
1
100
AcDbAlignedDimension
 13
124.2390400000055
 23
105.0584000000047
 33
0
 14
124.2390400000055
 24
83.55840000000474
 34
0
  0
LINE
  5
177
100
AcDbEntity
  8
Frame
  6
ByLayer
 62
  256
370
   -1
100
AcDbLine
 10
110.7390400000055
 20
118.5584000000047
 11
110.7390400000055
 21
120.6797203435644
  0
DIMENSION
  5
178
100
AcDbEntity
  8
Dimensions
  6
ByLayer
 62
  256
370
   -1
100
AcDbDimension
  2
*D11
 10
124.2390400000055
 20
76.44119040001853
 30
0
 11
110.7390400000055
 21
77.04119040001852
 31
0
 70
   33
 71
    5
  3
Standard
 53
0
210
0
220
0
230
1
100
AcDbAlignedDimension
 13
97.23904000000552
 23
82.05840000000474
 33
0
 14
124.2390400000055
 24
82.05840000000474
 34
0
  0
DIMENSION
  5
179
100
AcDbEntity
  8
Dimensions
  6
ByLayer
 62
  256
370
   -1
100
AcDbDimension
  2
*D12
 10
120.7390400000055
 20
125.5669760000305
 30
0
 11
110.7390400000055
 21
126.1669760000305
 31
0
 70
   33
 71
    5
  3
Standard
 53
0
210
0
220
0
230
1
100
AcDbAlignedDimension
 13
100.7390400000055
 23
108.5584000000047
 33
0
 14
120.7390400000055
 24
108.5584000000047
 34
0
  0
DIMENSION
  5
17A
100
AcDbEntity
  8
Dimensions
  6
ByLayer
 62
  256
370
   -1
100
AcDbDimension
  2
*D13
 10
187.2390400000055
 20
123.9449600000314
 30
0
 11
169.2390400000055
 21
124.5449600000314
 31
0
 70
   33
 71
    5
  3
Standard
 53
0
210
0
220
0
230
1
100
AcDbAlignedDimension
 13
151.2390400000055
 23
120.6797203435644
 33
0
 14
187.2390400000055
 24
120.6797203435644
 34
0
  0
DIMENSION
  5
17B
100
AcDbEntity
  8
Dimensions
  6
ByLayer
 62
  256
370
   -1
100
AcDbDimension
  2
*D14
 10
184.2390400000055
 20
76.48000000001949
 30
0
 11
169.2390400000055
 21
77.08000000001948
 31
0
 70
   33
 71
    5
  3
Standard
 53
0
210
0
220
0
230
1
100
AcDbAlignedDimension
 13
154.2390400000055
 23
82.05840000000472
 33
0
 14
184.2390400000055
 24
82.05840000000472
 34
0
  0
DIMENSION
  5
17C
100
AcDbEntity
  8
Dimensions
  6
ByLayer
 62
  256
370
   -1
100
AcDbDimension
  2
*D15
 10
182.7390400000055
 20
93.71648000002394
 30
0
 11
169.2390400000055
 21
94.31648000002393
 31
0
 70
   33
 71
    5
  3
Standard
 53
0
210
0
220
0
230
1
100
AcDbAlignedDimension
 13
155.7390400000055
 23
88.55840000000472
 33
0
 14
182.7390400000055
 24
88.55840000000472
 34
0
  0
DIMENSION
  5
17D
100
AcDbEntity
  8
Dimensions
  6
ByLayer
 62
  256
370
   -1
100
AcDbDimension
  2
*D16
 10
124.2390400000055
 20
92.32384000002374
 30
0
 11
110.7390400000055
 21
92.92384000002373
 31
0
 70
   33
 71
    5
  3
Standard
 53
0
210
0
220
0
230
1
100
AcDbAlignedDimension
 13
97.2390400000055
 23
87.05840000000474
 33
0
 14
124.2390400000055
 24
87.05840000000474
 34
0
  0
DIMENSION
  5
17E
100
AcDbEntity
  8
Dimensions
  6
ByLayer
 62
  256
370
   -1
100
AcDbDimension
  2
*D17
 10
124.2390400000055
 20
56.32720000000694
 30
0
 11
0
 21
0
 31
0
 70
   34
 71
    5
  3
Standard
 53
0
210
0
220
0
230
1
100
AcDb2LineAngularDimension
 13
110.7567176695352
 23
69.84487766953661
 33
0
 14
102.1558070181623
 24
61.24396701816373
 34
0
 15
110.7390400000055
 25
69.82720000000694
 35
0
 16
111.7184000000289
 26
64.30720000001661
 36
0
  0
LINE
  5
17F
100
AcDbEntity
  8
Frame
  6
ByLayer
 62
  256
370
   -1
100
AcDbLine
 10
110.7390400000055
 20
120.6797203435644
 11
93.05817167542399
 21
102.9988520189829
  0
LINE
  5
180
100
AcDbEntity
  8
Frame
  6
ByLayer
 62
  256
370
   -1
100
AcDbLine
 10
110.7390400000055
 20
120.6797203435644
 11
128.419908324587
 21
102.9988520189828
  0
LINE
  5
181
100
AcDbEntity
  8
Frame
  6
ByLayer
 62
  256
370
   -1
100
AcDbLine
 10
110.7390400000055
 20
118.5584000000047
 11
127.3592481528072
 21
101.938191847203
  0
LINE
  5
182
100
AcDbEntity
  8
Frame
  6
ByLayer
 62
  256
370
   -1
100
AcDbLine
 10
110.7390400000055
 20
118.5584000000047
 11
94.11883184720381
 21
101.938191847203
  0
LINE
  5
183
100
AcDbEntity
  8
Frame
  6
ByLayer
 62
  256
370
   -1
100
AcDbLine
 10
93.05817167542399
 20
102.9988520189829
 11
94.11883184720381
 21
101.938191847203
  0
LINE
  5
184
100
AcDbEntity
  8
Frame
  6
ByLayer
 62
  256
370
   -1
100
AcDbLine
 10
127.3592481528072
 20
101.938191847203
 11
128.419908324587
 21
102.9988520189828
  0
DIMENSION
  5
185
100
AcDbEntity
  8
Dimensions
  6
ByLayer
 62
  256
370
   -1
100
AcDbDimension
  2
*D18
 10
88.09980784720068
 20
107.9572158472062
 30
0
 11
96.51597794077951
 21
117.2219140782089
 31
0
 70
   33
 71
    5
  3
Standard
 53
0
210
0
220
0
230
1
100
AcDbAlignedDimension
 13
110.7390400000055
 23
120.6797203435644
 33
0
 14
93.05817167542399
 24
102.9988520189829
 34
0
  0
LINE
  5
186
100
AcDbEntity
  8
Frame
  6
ByLayer
 62
  256
370
   -1
100
AcDbLine
 10
97.23904000000552
 20
83.55840000000474
 11
97.23904000000552
 21
105.0584000000047
  0
DIMENSION
  5
187
100
AcDbEntity
  8
Dimensions
  6
ByLayer
 62
  256
370
   -1
100
AcDbDimension
  2
*D19
 10
149.0288640000427
 20
83.55840000000472
 30
0
 11
148.4288640000427
 21
85.30840000000472
 31
0
 70
   33
 71
    5
  3
Standard
 53
0
210
0
220
0
230
1
100
AcDbAlignedDimension
 13
155.7390400000055
 23
87.05840000000472
 33
0
 14
155.7390400000055
 24
83.55840000000472
 34
0
  0
DIMENSION
  5
188
100
AcDbEntity
  8
Dimensions
  6
ByLayer
 62
  256
370
   -1
100
AcDbDimension
  2
*D20
 10
144.9984000000424
 20
105.0584000000047
 30
0
 11
144.3984000000424
 21
106.8084000000047
 31
0
 70
   33
 71
    5
  3
Standard
 53
0
210
0
220
0
230
1
100
AcDbAlignedDimension
 13
154.2390400000055
 23
108.5584000000047
 33
0
 14
154.2390400000055
 24
105.0584000000047
 34
0
  0
DIMENSION
  5
189
100
AcDbEntity
  8
Dimensions
  6
ByLayer
 62
  256
370
   -1
100
AcDbDimension
  2
*D21
 10
91.69797120002708
 20
82.05840000000474
 30
0
 11
91.09797120002709
 21
82.80840000000474
 31
0
 70
   33
 71
    5
  3
Standard
 53
0
210
0
220
0
230
1
100
AcDbAlignedDimension
 13
97.23904000000552
 23
83.55840000000474
 33
0
 14
97.23904000000552
 24
82.05840000000474
 34
0
  0
DIMENSION
  5
18A
100
AcDbEntity
  8
Dimensions
  6
ByLayer
 62
  256
370
   -1
100
AcDbDimension
  2
*D22
 10
184.2390400000055
 20
113.8360320000337
 30
0
 11
183.4890400000055
 21
114.4360320000337
 31
0
 70
   33
 71
    5
  3
Standard
 53
0
210
0
220
0
230
1
100
AcDbAlignedDimension
 13
182.7390400000055
 23
108.5584000000047
 33
0
 14
184.2390400000055
 24
108.5584000000047
 34
0
  0
DIMENSION
  5
18B
100
AcDbEntity
  8
Dimensions
  6
ByLayer
 62
  256
370
   -1
100
AcDbDimension
  2
*D23
 10
182.7390400000055
 20
74.86832640002221
 30
0
 11
181.9890400000055
 21
75.46832640002221
 31
0
 70
   33
 71
    5
  3
Standard
 53
0
210
0
220
0
230
1
100
AcDbAlignedDimension
 13
181.2390400000055
 23
83.55840000000472
 33
0
 14
182.7390400000055
 24
83.55840000000472
 34
0
  0
DIMENSION
  5
18C
100
AcDbEntity
  8
Dimensions
  6
ByLayer
 62
  256
370
   -1
100
AcDbDimension
  2
*D24
 10
91.69755176962737
 20
87.05840000000474
 30
0
 11
91.09755176962737
 21
87.80840000000474
 31
0
 70
   33
 71
    5
  3
Standard
 53
0
210
0
220
0
230
1
100
AcDbAlignedDimension
 13
100.7390400000055
 23
88.55840000000474
 33
0
 14
100.7390400000055
 24
87.05840000000474
 34
0
  0
ENDSEC
  0
SECTION
  2
OBJECTS
  0
DICTIONARY
  5
C
330
0
100
AcDbDictionary
281
    1
  3
ACAD_GROUP
350
D
  0
DICTIONARY
  5
D
330
C
100
AcDbDictionary
281
    1
  0
ENDSEC
  0
EOF
